<svg xmlns="http://www.w3.org/2000/svg" xmlns:xlink="http://www.w3.org/1999/xlink" width="500" zoomAndPan="magnify" viewBox="0 0 375 374.999991" height="500" preserveAspectRatio="xMidYMid meet" version="1.0"><defs><clipPath id="0250fe294b"><path d="M 129 112.5 L 246.28125 112.5 L 246.28125 262.5 L 129 262.5 Z M 129 112.5 " clip-rule="nonzero"/></clipPath></defs><rect x="-37.5" width="450" fill="#ffffff" y="-37.499999" height="449.999989" fill-opacity="1"/><rect x="-37.5" width="450" fill="#01e297" y="-37.499999" height="449.999989" fill-opacity="1"/><g clip-path="url(#0250fe294b)"><path fill="#000000" d="M 129.871094 123.441406 C 128.558594 148.75 156.496094 196.953125 170.066406 218.816406 C 170.148438 218.949219 170.308594 219.007812 170.460938 218.957031 C 170.613281 218.90625 170.707031 218.765625 170.691406 218.605469 C 168.355469 191.851562 160.992188 168.550781 181.761719 141.59375 C 181.765625 141.589844 181.765625 141.585938 181.769531 141.582031 C 183.964844 138.441406 186.125 135.492188 188.445312 132.324219 C 191.53125 128.117188 194.886719 123.535156 198.527344 118.269531 C 198.621094 118.136719 198.609375 117.960938 198.5 117.84375 C 198.390625 117.726562 198.21875 117.699219 198.082031 117.78125 C 176.65625 130.109375 150.28125 158.578125 131.609375 125.621094 C 131.605469 125.613281 131.605469 125.609375 131.601562 125.601562 C 131.230469 124.847656 130.871094 124.085938 130.519531 123.316406 C 130.453125 123.171875 130.300781 123.09375 130.144531 123.125 C 129.992188 123.15625 129.878906 123.28125 129.871094 123.441406 Z M 179.324219 155.703125 C 179.199219 155.703125 179.089844 155.644531 179.027344 155.535156 C 178.964844 155.425781 178.964844 155.300781 179.027344 155.191406 C 180.753906 152.222656 182.664062 149.246094 184.667969 146.3125 C 184.738281 146.207031 184.855469 146.152344 184.980469 146.167969 C 187.417969 146.425781 189.78125 146.851562 192.140625 147.460938 C 192.246094 147.488281 192.328125 147.558594 192.371094 147.664062 C 192.410156 147.765625 192.402344 147.871094 192.347656 147.964844 C 190.699219 150.695312 189.15625 153.464844 187.730469 156.269531 C 187.660156 156.40625 187.511719 156.476562 187.363281 156.449219 C 184.714844 155.929688 182.015625 155.679688 179.324219 155.703125 Z M 140.011719 201.125 C 141.136719 209.523438 144.925781 217.640625 151.378906 224.101562 C 167 239.75 192.328125 239.75 207.949219 224.101562 C 221.257812 210.773438 223.394531 190.089844 213.535156 174.421875 C 213.480469 174.339844 213.46875 174.246094 213.496094 174.148438 C 213.523438 174.054688 213.582031 173.980469 213.671875 173.9375 C 216.382812 172.582031 219.242188 171.378906 222.175781 170.292969 C 222.332031 170.234375 222.503906 170.296875 222.585938 170.441406 C 233.21875 188.472656 231.445312 211.449219 217.984375 227.644531 C 217.871094 227.777344 217.878906 227.976562 218.003906 228.101562 L 226.417969 236.527344 C 226.550781 236.660156 226.765625 236.660156 226.898438 236.527344 L 228.007812 235.414062 C 228.230469 235.195312 228.609375 235.195312 228.832031 235.414062 L 246.113281 252.726562 C 246.234375 252.84375 246.292969 252.992188 246.292969 253.140625 L 246.28125 253.140625 C 246.28125 253.289062 246.226562 253.441406 246.113281 253.550781 L 237.351562 262.328125 C 237.242188 262.441406 237.089844 262.496094 236.941406 262.496094 L 236.941406 262.503906 C 236.796875 262.503906 236.648438 262.445312 236.527344 262.328125 L 219.246094 245.019531 C 219.023438 244.796875 219.023438 244.417969 219.246094 244.195312 L 220.355469 243.082031 C 220.488281 242.949219 220.488281 242.734375 220.355469 242.601562 L 211.941406 234.175781 C 211.816406 234.050781 211.621094 234.039062 211.484375 234.152344 C 202.285156 241.824219 190.976562 245.65625 179.664062 245.65625 C 153.417969 245.65625 131.660156 225.25 129.960938 199.03125 C 129.304688 188.890625 131.71875 178.589844 137.210938 169.652344 C 137.277344 169.539062 137.394531 169.480469 137.527344 169.492188 C 137.65625 169.503906 137.761719 169.578125 137.8125 169.699219 C 139.316406 173.304688 140.921875 176.882812 142.59375 180.390625 C 142.636719 180.480469 142.640625 180.574219 142.601562 180.664062 C 139.957031 187.179688 139.09375 194.25 140.011719 201.125 Z M 224.195312 140.582031 C 224.195312 148.539062 233.847656 152.542969 239.464844 146.917969 C 245.085938 141.289062 241.085938 131.621094 233.140625 131.621094 C 228.199219 131.621094 224.195312 135.632812 224.195312 140.582031 Z M 213.609375 127.101562 C 213.707031 126.980469 213.867188 126.941406 214.007812 127.003906 C 214.148438 127.066406 214.230469 127.207031 214.207031 127.363281 C 212.785156 137.863281 216.199219 145.609375 220.023438 150.320312 C 223.871094 155.054688 228.152344 156.730469 237.628906 160.136719 C 237.773438 160.1875 237.863281 160.320312 237.855469 160.472656 C 237.847656 160.625 237.742188 160.75 237.597656 160.785156 C 226.882812 163.417969 212.964844 167.191406 206.449219 172.417969 C 194.132812 182.292969 189.140625 197.425781 183.300781 214.796875 C 183.246094 214.957031 183.089844 215.050781 182.925781 215.027344 C 182.761719 215 182.640625 214.863281 182.636719 214.699219 C 182.363281 201.636719 183.308594 180.757812 187.429688 169.582031 C 192.335938 156.273438 200.738281 142.746094 213.609375 127.101562 Z M 147.050781 122.234375 C 147.050781 116.855469 151.402344 112.496094 156.773438 112.496094 C 165.414062 112.496094 169.757812 123.003906 163.648438 129.121094 C 157.539062 135.242188 147.050781 130.886719 147.050781 122.234375 Z M 147.050781 122.234375 " fill-opacity="1" fill-rule="evenodd"/></g></svg>