<svg xmlns="http://www.w3.org/2000/svg" xmlns:xlink="http://www.w3.org/1999/xlink" width="500" zoomAndPan="magnify" viewBox="0 0 375 374.999991" height="500" preserveAspectRatio="xMidYMid meet" version="1.0"><defs><g/><clipPath id="e3ca25c9e6"><path d="M 55 158.285156 L 96.101562 158.285156 L 96.101562 210.785156 L 55 210.785156 Z M 55 158.285156 " clip-rule="nonzero"/></clipPath></defs><rect x="-37.5" width="450" fill="#ffffff" y="-37.499999" height="449.999989" fill-opacity="1"/><rect x="-37.5" width="450" fill="#01e297" y="-37.499999" height="449.999989" fill-opacity="1"/><g clip-path="url(#e3ca25c9e6)"><path fill="#000000" d="M 55.320312 162.113281 C 54.859375 170.972656 64.644531 187.839844 69.402344 195.496094 C 69.429688 195.542969 69.484375 195.5625 69.539062 195.542969 C 69.589844 195.527344 69.625 195.476562 69.621094 195.421875 C 68.800781 186.058594 66.222656 177.902344 73.496094 168.464844 C 73.5 168.464844 73.5 168.464844 73.5 168.460938 C 74.269531 167.363281 75.027344 166.332031 75.839844 165.222656 C 76.921875 163.75 78.097656 162.144531 79.371094 160.304688 C 79.402344 160.257812 79.398438 160.195312 79.363281 160.15625 C 79.324219 160.113281 79.265625 160.105469 79.214844 160.132812 C 71.707031 164.445312 62.46875 174.410156 55.929688 162.875 C 55.925781 162.875 55.925781 162.871094 55.925781 162.871094 C 55.796875 162.605469 55.667969 162.339844 55.546875 162.070312 C 55.523438 162.019531 55.46875 161.992188 55.414062 162.003906 C 55.359375 162.011719 55.320312 162.058594 55.320312 162.113281 Z M 72.644531 173.40625 C 72.601562 173.40625 72.5625 173.382812 72.539062 173.347656 C 72.519531 173.308594 72.519531 173.265625 72.539062 173.226562 C 73.144531 172.1875 73.8125 171.144531 74.515625 170.117188 C 74.539062 170.082031 74.582031 170.0625 74.625 170.066406 C 75.480469 170.15625 76.308594 170.304688 77.132812 170.519531 C 77.171875 170.53125 77.199219 170.554688 77.214844 170.589844 C 77.230469 170.625 77.226562 170.664062 77.207031 170.695312 C 76.628906 171.652344 76.089844 172.621094 75.589844 173.601562 C 75.566406 173.652344 75.511719 173.675781 75.460938 173.664062 C 74.53125 173.484375 73.585938 173.398438 72.644531 173.40625 Z M 58.871094 189.304688 C 59.265625 192.242188 60.59375 195.082031 62.855469 197.34375 C 68.328125 202.820312 77.199219 202.820312 82.671875 197.34375 C 87.335938 192.679688 88.085938 185.441406 84.628906 179.957031 C 84.609375 179.925781 84.605469 179.894531 84.617188 179.863281 C 84.625 179.828125 84.644531 179.800781 84.675781 179.785156 C 85.628906 179.3125 86.628906 178.890625 87.65625 178.511719 C 87.710938 178.492188 87.769531 178.511719 87.800781 178.5625 C 91.523438 184.875 90.90625 192.914062 86.1875 198.582031 C 86.148438 198.632812 86.152344 198.699219 86.195312 198.742188 L 89.144531 201.695312 C 89.1875 201.738281 89.265625 201.738281 89.3125 201.695312 L 89.699219 201.304688 C 89.777344 201.226562 89.910156 201.226562 89.988281 201.304688 L 96.042969 207.363281 C 96.085938 207.40625 96.105469 207.457031 96.105469 207.507812 L 96.101562 207.507812 C 96.101562 207.558594 96.082031 207.613281 96.042969 207.652344 L 92.972656 210.722656 C 92.933594 210.761719 92.882812 210.78125 92.828125 210.78125 L 92.828125 210.785156 C 92.777344 210.785156 92.726562 210.765625 92.683594 210.722656 L 86.628906 204.664062 C 86.550781 204.585938 86.550781 204.453125 86.628906 204.375 L 87.019531 203.988281 C 87.066406 203.941406 87.066406 203.867188 87.019531 203.820312 L 84.070312 200.871094 C 84.027344 200.824219 83.957031 200.824219 83.910156 200.863281 C 80.6875 203.546875 76.726562 204.890625 72.761719 204.890625 C 63.566406 204.890625 55.945312 197.746094 55.351562 188.570312 C 55.121094 185.019531 55.964844 181.414062 57.890625 178.289062 C 57.914062 178.25 57.953125 178.226562 58 178.230469 C 58.046875 178.234375 58.082031 178.261719 58.101562 178.304688 C 58.628906 179.566406 59.191406 180.816406 59.777344 182.046875 C 59.789062 182.078125 59.792969 182.109375 59.777344 182.140625 C 58.851562 184.421875 58.550781 186.898438 58.871094 189.304688 Z M 88.363281 168.113281 C 88.363281 170.898438 91.746094 172.300781 93.714844 170.328125 C 95.683594 168.359375 94.28125 164.976562 91.5 164.976562 C 89.765625 164.976562 88.363281 166.378906 88.363281 168.113281 Z M 84.65625 163.394531 C 84.691406 163.351562 84.746094 163.339844 84.796875 163.359375 C 84.84375 163.382812 84.871094 163.433594 84.867188 163.484375 C 84.367188 167.160156 85.5625 169.871094 86.902344 171.519531 C 88.25 173.179688 89.75 173.765625 93.070312 174.957031 C 93.121094 174.972656 93.152344 175.019531 93.148438 175.074219 C 93.148438 175.128906 93.109375 175.171875 93.058594 175.183594 C 89.304688 176.105469 84.429688 177.425781 82.148438 179.253906 C 77.832031 182.710938 76.082031 188.007812 74.035156 194.089844 C 74.019531 194.144531 73.964844 194.175781 73.90625 194.167969 C 73.847656 194.160156 73.804688 194.109375 73.804688 194.054688 C 73.707031 189.480469 74.039062 182.175781 75.484375 178.261719 C 77.203125 173.605469 80.144531 168.871094 84.65625 163.394531 Z M 61.335938 161.691406 C 61.335938 159.808594 62.863281 158.28125 64.742188 158.28125 C 67.769531 158.28125 69.292969 161.960938 67.152344 164.101562 C 65.011719 166.242188 61.335938 164.71875 61.335938 161.691406 Z M 61.335938 161.691406 " fill-opacity="1" fill-rule="evenodd"/></g><g fill="#000000" fill-opacity="1"><g transform="translate(104.777342, 197.00032)"><g><path d="M 2.109375 -19.09375 L 7.40625 -19.09375 L 7.40625 0.875 C 7.40625 3.09375 6.757812 4.695312 5.46875 5.6875 C 4.175781 6.6875 2.382812 7.15625 0.09375 7.09375 C -0.0507812 7.09375 -0.195312 7.085938 -0.34375 7.078125 C -0.5 7.078125 -0.679688 7.078125 -0.890625 7.078125 L -0.890625 2.9375 C -0.753906 2.945312 -0.628906 2.953125 -0.515625 2.953125 C -0.410156 2.953125 -0.304688 2.953125 -0.203125 2.953125 C 0.648438 2.953125 1.25 2.769531 1.59375 2.40625 C 1.9375 2.050781 2.109375 1.515625 2.109375 0.796875 Z M 4.75 -21.546875 C 3.96875 -21.546875 3.296875 -21.804688 2.734375 -22.328125 C 2.171875 -22.859375 1.890625 -23.492188 1.890625 -24.234375 C 1.890625 -24.972656 2.171875 -25.601562 2.734375 -26.125 C 3.296875 -26.644531 3.96875 -26.90625 4.75 -26.90625 C 5.539062 -26.90625 6.21875 -26.644531 6.78125 -26.125 C 7.34375 -25.601562 7.625 -24.972656 7.625 -24.234375 C 7.625 -23.492188 7.34375 -22.859375 6.78125 -22.328125 C 6.21875 -21.804688 5.539062 -21.546875 4.75 -21.546875 Z M 4.75 -21.546875 "/></g></g></g><g fill="#000000" fill-opacity="1"><g transform="translate(114.295759, 197.00032)"><g><path d="M 10.734375 0.375 C 8.804688 0.375 7.140625 -0.0351562 5.734375 -0.859375 C 4.328125 -1.679688 3.242188 -2.832031 2.484375 -4.3125 C 1.722656 -5.789062 1.34375 -7.507812 1.34375 -9.46875 C 1.34375 -11.4375 1.722656 -13.160156 2.484375 -14.640625 C 3.242188 -16.117188 4.328125 -17.269531 5.734375 -18.09375 C 7.140625 -18.925781 8.804688 -19.34375 10.734375 -19.34375 C 12.671875 -19.34375 14.335938 -18.925781 15.734375 -18.09375 C 17.140625 -17.269531 18.222656 -16.117188 18.984375 -14.640625 C 19.753906 -13.160156 20.140625 -11.4375 20.140625 -9.46875 C 20.140625 -7.507812 19.753906 -5.789062 18.984375 -4.3125 C 18.222656 -2.832031 17.140625 -1.679688 15.734375 -0.859375 C 14.335938 -0.0351562 12.671875 0.375 10.734375 0.375 Z M 10.765625 -3.734375 C 12.078125 -3.734375 13.066406 -4.28125 13.734375 -5.375 C 14.410156 -6.46875 14.75 -7.847656 14.75 -9.515625 C 14.75 -11.171875 14.410156 -12.546875 13.734375 -13.640625 C 13.066406 -14.742188 12.078125 -15.296875 10.765625 -15.296875 C 9.429688 -15.296875 8.421875 -14.742188 7.734375 -13.640625 C 7.054688 -12.546875 6.71875 -11.171875 6.71875 -9.515625 C 6.71875 -7.847656 7.054688 -6.46875 7.734375 -5.375 C 8.421875 -4.28125 9.429688 -3.734375 10.765625 -3.734375 Z M 10.765625 -3.734375 "/></g></g></g><g fill="#000000" fill-opacity="1"><g transform="translate(135.768124, 197.00032)"><g><path d="M 2.21875 0 L 2.21875 -25.453125 L 7.5 -25.453125 L 7.5 -15.890625 L 7.671875 -15.890625 C 7.910156 -16.410156 8.25 -16.9375 8.6875 -17.46875 C 9.125 -18 9.703125 -18.441406 10.421875 -18.796875 C 11.148438 -19.160156 12.039062 -19.34375 13.09375 -19.34375 C 14.5 -19.34375 15.785156 -18.976562 16.953125 -18.25 C 18.117188 -17.53125 19.054688 -16.441406 19.765625 -14.984375 C 20.472656 -13.523438 20.828125 -11.703125 20.828125 -9.515625 C 20.828125 -7.390625 20.484375 -5.59375 19.796875 -4.125 C 19.109375 -2.664062 18.179688 -1.5625 17.015625 -0.8125 C 15.847656 -0.0625 14.539062 0.3125 13.09375 0.3125 C 12.0625 0.3125 11.1875 0.144531 10.46875 -0.1875 C 9.75 -0.53125 9.164062 -0.960938 8.71875 -1.484375 C 8.269531 -2.003906 7.921875 -2.53125 7.671875 -3.0625 L 7.4375 -3.0625 L 7.4375 0 Z M 7.390625 -9.546875 C 7.390625 -7.847656 7.738281 -6.484375 8.4375 -5.453125 C 9.144531 -4.421875 10.132812 -3.90625 11.40625 -3.90625 C 12.707031 -3.90625 13.703125 -4.425781 14.390625 -5.46875 C 15.078125 -6.519531 15.421875 -7.878906 15.421875 -9.546875 C 15.421875 -11.203125 15.078125 -12.546875 14.390625 -13.578125 C 13.710938 -14.609375 12.71875 -15.125 11.40625 -15.125 C 10.125 -15.125 9.132812 -14.617188 8.4375 -13.609375 C 7.738281 -12.609375 7.390625 -11.253906 7.390625 -9.546875 Z M 7.390625 -9.546875 "/></g></g></g><g fill="#000000" fill-opacity="1"><g transform="translate(157.998489, 197.00032)"><g><path d="M 7.40625 -25.453125 L 7.40625 0 L 2.109375 0 L 2.109375 -25.453125 Z M 7.40625 -25.453125 "/></g></g></g><g fill="#000000" fill-opacity="1"><g transform="translate(167.516905, 197.00032)"><g><path d="M 7.5625 0.359375 C 5.738281 0.359375 4.222656 -0.113281 3.015625 -1.0625 C 1.816406 -2.019531 1.21875 -3.441406 1.21875 -5.328125 C 1.21875 -6.753906 1.550781 -7.875 2.21875 -8.6875 C 2.894531 -9.5 3.773438 -10.09375 4.859375 -10.46875 C 5.953125 -10.84375 7.128906 -11.09375 8.390625 -11.21875 C 10.046875 -11.375 11.226562 -11.539062 11.9375 -11.71875 C 12.65625 -11.90625 13.015625 -12.304688 13.015625 -12.921875 L 13.015625 -13 C 13.015625 -13.789062 12.765625 -14.398438 12.265625 -14.828125 C 11.773438 -15.253906 11.078125 -15.46875 10.171875 -15.46875 C 9.222656 -15.46875 8.46875 -15.257812 7.90625 -14.84375 C 7.34375 -14.4375 6.96875 -13.914062 6.78125 -13.28125 L 1.890625 -13.671875 C 2.253906 -15.410156 3.160156 -16.789062 4.609375 -17.8125 C 6.054688 -18.832031 7.921875 -19.34375 10.203125 -19.34375 C 11.617188 -19.34375 12.941406 -19.117188 14.171875 -18.671875 C 15.410156 -18.222656 16.410156 -17.523438 17.171875 -16.578125 C 17.929688 -15.628906 18.3125 -14.394531 18.3125 -12.875 L 18.3125 0 L 13.28125 0 L 13.28125 -2.640625 L 13.140625 -2.640625 C 12.671875 -1.753906 11.972656 -1.03125 11.046875 -0.46875 C 10.128906 0.0820312 8.96875 0.359375 7.5625 0.359375 Z M 9.078125 -3.296875 C 10.234375 -3.296875 11.179688 -3.628906 11.921875 -4.296875 C 12.671875 -4.972656 13.046875 -5.816406 13.046875 -6.828125 L 13.046875 -8.84375 C 12.835938 -8.707031 12.515625 -8.582031 12.078125 -8.46875 C 11.648438 -8.363281 11.1875 -8.269531 10.6875 -8.1875 C 10.195312 -8.113281 9.757812 -8.046875 9.375 -7.984375 C 8.445312 -7.859375 7.695312 -7.597656 7.125 -7.203125 C 6.5625 -6.816406 6.28125 -6.25 6.28125 -5.5 C 6.28125 -4.769531 6.539062 -4.21875 7.0625 -3.84375 C 7.59375 -3.476562 8.265625 -3.296875 9.078125 -3.296875 Z M 9.078125 -3.296875 "/></g></g></g><g fill="#000000" fill-opacity="1"><g transform="translate(187.821218, 197.00032)"><g><path d="M 10.71875 7.4375 C 8.144531 7.4375 6.125 6.929688 4.65625 5.921875 C 3.195312 4.910156 2.304688 3.679688 1.984375 2.234375 L 6.890625 1.578125 C 7.097656 2.085938 7.515625 2.554688 8.140625 2.984375 C 8.765625 3.410156 9.664062 3.625 10.84375 3.625 C 11.988281 3.625 12.9375 3.347656 13.6875 2.796875 C 14.4375 2.253906 14.8125 1.359375 14.8125 0.109375 L 14.8125 -3.375 L 14.59375 -3.375 C 14.238281 -2.59375 13.625 -1.878906 12.75 -1.234375 C 11.875 -0.597656 10.671875 -0.28125 9.140625 -0.28125 C 7.710938 -0.28125 6.410156 -0.613281 5.234375 -1.28125 C 4.066406 -1.945312 3.132812 -2.96875 2.4375 -4.34375 C 1.75 -5.71875 1.40625 -7.460938 1.40625 -9.578125 C 1.40625 -11.753906 1.757812 -13.5625 2.46875 -15 C 3.175781 -16.445312 4.113281 -17.53125 5.28125 -18.25 C 6.457031 -18.976562 7.742188 -19.34375 9.140625 -19.34375 C 10.203125 -19.34375 11.09375 -19.160156 11.8125 -18.796875 C 12.539062 -18.441406 13.128906 -18 13.578125 -17.46875 C 14.023438 -16.9375 14.363281 -16.410156 14.59375 -15.890625 L 14.796875 -15.890625 L 14.796875 -19.09375 L 20.046875 -19.09375 L 20.046875 0.1875 C 20.046875 1.769531 19.644531 3.097656 18.84375 4.171875 C 18.050781 5.253906 16.953125 6.066406 15.546875 6.609375 C 14.148438 7.160156 12.539062 7.4375 10.71875 7.4375 Z M 10.828125 -4.25 C 12.097656 -4.25 13.082031 -4.71875 13.78125 -5.65625 C 14.488281 -6.601562 14.84375 -7.921875 14.84375 -9.609375 C 14.84375 -11.285156 14.492188 -12.625 13.796875 -13.625 C 13.097656 -14.625 12.109375 -15.125 10.828125 -15.125 C 9.515625 -15.125 8.515625 -14.609375 7.828125 -13.578125 C 7.148438 -12.554688 6.8125 -11.234375 6.8125 -9.609375 C 6.8125 -7.960938 7.15625 -6.65625 7.84375 -5.6875 C 8.53125 -4.726562 9.523438 -4.25 10.828125 -4.25 Z M 10.828125 -4.25 "/></g></g></g><g fill="#000000" fill-opacity="1"><g transform="translate(209.977024, 197.00032)"><g><path d="M 2.21875 0 L 2.21875 -25.453125 L 7.5 -25.453125 L 7.5 -15.890625 L 7.671875 -15.890625 C 7.910156 -16.410156 8.25 -16.9375 8.6875 -17.46875 C 9.125 -18 9.703125 -18.441406 10.421875 -18.796875 C 11.148438 -19.160156 12.039062 -19.34375 13.09375 -19.34375 C 14.5 -19.34375 15.785156 -18.976562 16.953125 -18.25 C 18.117188 -17.53125 19.054688 -16.441406 19.765625 -14.984375 C 20.472656 -13.523438 20.828125 -11.703125 20.828125 -9.515625 C 20.828125 -7.390625 20.484375 -5.59375 19.796875 -4.125 C 19.109375 -2.664062 18.179688 -1.5625 17.015625 -0.8125 C 15.847656 -0.0625 14.539062 0.3125 13.09375 0.3125 C 12.0625 0.3125 11.1875 0.144531 10.46875 -0.1875 C 9.75 -0.53125 9.164062 -0.960938 8.71875 -1.484375 C 8.269531 -2.003906 7.921875 -2.53125 7.671875 -3.0625 L 7.4375 -3.0625 L 7.4375 0 Z M 7.390625 -9.546875 C 7.390625 -7.847656 7.738281 -6.484375 8.4375 -5.453125 C 9.144531 -4.421875 10.132812 -3.90625 11.40625 -3.90625 C 12.707031 -3.90625 13.703125 -4.425781 14.390625 -5.46875 C 15.078125 -6.519531 15.421875 -7.878906 15.421875 -9.546875 C 15.421875 -11.203125 15.078125 -12.546875 14.390625 -13.578125 C 13.710938 -14.609375 12.71875 -15.125 11.40625 -15.125 C 10.125 -15.125 9.132812 -14.617188 8.4375 -13.609375 C 7.738281 -12.609375 7.390625 -11.253906 7.390625 -9.546875 Z M 7.390625 -9.546875 "/></g></g></g><g fill="#000000" fill-opacity="1"><g transform="translate(232.207388, 197.00032)"><g><path d="M 10.8125 0.375 C 8.851562 0.375 7.164062 -0.0234375 5.75 -0.828125 C 4.332031 -1.628906 3.242188 -2.765625 2.484375 -4.234375 C 1.722656 -5.703125 1.34375 -7.441406 1.34375 -9.453125 C 1.34375 -11.421875 1.722656 -13.144531 2.484375 -14.625 C 3.242188 -16.113281 4.316406 -17.269531 5.703125 -18.09375 C 7.097656 -18.925781 8.734375 -19.34375 10.609375 -19.34375 C 12.285156 -19.34375 13.800781 -18.984375 15.15625 -18.265625 C 16.507812 -17.554688 17.582031 -16.484375 18.375 -15.046875 C 19.175781 -13.609375 19.578125 -11.804688 19.578125 -9.640625 L 19.578125 -8.1875 L 6.578125 -8.1875 L 6.578125 -8.171875 C 6.578125 -6.753906 6.960938 -5.632812 7.734375 -4.8125 C 8.515625 -3.988281 9.570312 -3.578125 10.90625 -3.578125 C 11.789062 -3.578125 12.554688 -3.765625 13.203125 -4.140625 C 13.847656 -4.515625 14.300781 -5.066406 14.5625 -5.796875 L 19.46875 -5.46875 C 19.09375 -3.695312 18.144531 -2.28125 16.625 -1.21875 C 15.113281 -0.15625 13.175781 0.375 10.8125 0.375 Z M 6.578125 -11.46875 L 14.59375 -11.46875 C 14.582031 -12.601562 14.21875 -13.539062 13.5 -14.28125 C 12.78125 -15.019531 11.84375 -15.390625 10.6875 -15.390625 C 9.507812 -15.390625 8.539062 -15.003906 7.78125 -14.234375 C 7.03125 -13.472656 6.628906 -12.550781 6.578125 -11.46875 Z M 6.578125 -11.46875 "/></g></g></g><g fill="#000000" fill-opacity="1"><g transform="translate(253.120572, 197.00032)"><g><path d="M 5.203125 0.328125 C 4.390625 0.328125 3.6875 0.0351562 3.09375 -0.546875 C 2.507812 -1.128906 2.21875 -1.832031 2.21875 -2.65625 C 2.21875 -3.46875 2.507812 -4.164062 3.09375 -4.75 C 3.6875 -5.332031 4.390625 -5.625 5.203125 -5.625 C 6.003906 -5.625 6.695312 -5.332031 7.28125 -4.75 C 7.875 -4.164062 8.175781 -3.46875 8.1875 -2.65625 C 8.175781 -1.832031 7.875 -1.128906 7.28125 -0.546875 C 6.695312 0.0351562 6.003906 0.328125 5.203125 0.328125 Z M 5.203125 0.328125 "/></g></g></g><g fill="#000000" fill-opacity="1"><g transform="translate(263.533677, 197.00032)"><g><path d="M 10.734375 0.375 C 8.785156 0.375 7.109375 -0.0390625 5.703125 -0.875 C 4.296875 -1.707031 3.21875 -2.863281 2.46875 -4.34375 C 1.71875 -5.832031 1.34375 -7.539062 1.34375 -9.46875 C 1.34375 -11.425781 1.71875 -13.144531 2.46875 -14.625 C 3.226562 -16.101562 4.304688 -17.257812 5.703125 -18.09375 C 7.109375 -18.925781 8.78125 -19.34375 10.71875 -19.34375 C 12.382812 -19.34375 13.84375 -19.039062 15.09375 -18.4375 C 16.351562 -17.832031 17.34375 -16.984375 18.0625 -15.890625 C 18.789062 -14.796875 19.191406 -13.507812 19.265625 -12.03125 L 14.265625 -12.03125 C 14.128906 -12.976562 13.757812 -13.742188 13.15625 -14.328125 C 12.550781 -14.921875 11.765625 -15.21875 10.796875 -15.21875 C 9.578125 -15.21875 8.59375 -14.722656 7.84375 -13.734375 C 7.09375 -12.742188 6.71875 -11.347656 6.71875 -9.546875 C 6.71875 -7.722656 7.085938 -6.3125 7.828125 -5.3125 C 8.578125 -4.3125 9.566406 -3.8125 10.796875 -3.8125 C 11.710938 -3.8125 12.476562 -4.085938 13.09375 -4.640625 C 13.71875 -5.191406 14.109375 -5.976562 14.265625 -7 L 19.265625 -7 C 19.179688 -5.539062 18.785156 -4.253906 18.078125 -3.140625 C 17.367188 -2.035156 16.390625 -1.171875 15.140625 -0.546875 C 13.898438 0.0664062 12.429688 0.375 10.734375 0.375 Z M 10.734375 0.375 "/></g></g></g><g fill="#000000" fill-opacity="1"><g transform="translate(284.086509, 197.00032)"><g><path d="M 10.734375 0.375 C 8.804688 0.375 7.140625 -0.0351562 5.734375 -0.859375 C 4.328125 -1.679688 3.242188 -2.832031 2.484375 -4.3125 C 1.722656 -5.789062 1.34375 -7.507812 1.34375 -9.46875 C 1.34375 -11.4375 1.722656 -13.160156 2.484375 -14.640625 C 3.242188 -16.117188 4.328125 -17.269531 5.734375 -18.09375 C 7.140625 -18.925781 8.804688 -19.34375 10.734375 -19.34375 C 12.671875 -19.34375 14.335938 -18.925781 15.734375 -18.09375 C 17.140625 -17.269531 18.222656 -16.117188 18.984375 -14.640625 C 19.753906 -13.160156 20.140625 -11.4375 20.140625 -9.46875 C 20.140625 -7.507812 19.753906 -5.789062 18.984375 -4.3125 C 18.222656 -2.832031 17.140625 -1.679688 15.734375 -0.859375 C 14.335938 -0.0351562 12.671875 0.375 10.734375 0.375 Z M 10.765625 -3.734375 C 12.078125 -3.734375 13.066406 -4.28125 13.734375 -5.375 C 14.410156 -6.46875 14.75 -7.847656 14.75 -9.515625 C 14.75 -11.171875 14.410156 -12.546875 13.734375 -13.640625 C 13.066406 -14.742188 12.078125 -15.296875 10.765625 -15.296875 C 9.429688 -15.296875 8.421875 -14.742188 7.734375 -13.640625 C 7.054688 -12.546875 6.71875 -11.171875 6.71875 -9.515625 C 6.71875 -7.847656 7.054688 -6.46875 7.734375 -5.375 C 8.421875 -4.28125 9.429688 -3.734375 10.765625 -3.734375 Z M 10.765625 -3.734375 "/></g></g></g><g fill="#000000" fill-opacity="1"><g transform="translate(305.558885, 197.00032)"><g><path d="M 2.109375 0 L 2.109375 -19.09375 L 7.15625 -19.09375 L 7.15625 -15.71875 L 7.390625 -15.71875 C 7.785156 -16.84375 8.445312 -17.726562 9.375 -18.375 C 10.3125 -19.019531 11.421875 -19.34375 12.703125 -19.34375 C 14.015625 -19.34375 15.128906 -19.015625 16.046875 -18.359375 C 16.960938 -17.710938 17.578125 -16.832031 17.890625 -15.71875 L 18.078125 -15.71875 C 18.472656 -16.8125 19.179688 -17.6875 20.203125 -18.34375 C 21.222656 -19.007812 22.4375 -19.34375 23.84375 -19.34375 C 25.625 -19.34375 27.070312 -18.773438 28.1875 -17.640625 C 29.300781 -16.515625 29.859375 -14.914062 29.859375 -12.84375 L 29.859375 0 L 24.578125 0 L 24.578125 -11.796875 C 24.578125 -12.859375 24.289062 -13.65625 23.71875 -14.1875 C 23.15625 -14.71875 22.453125 -14.984375 21.609375 -14.984375 C 20.648438 -14.984375 19.898438 -14.675781 19.359375 -14.0625 C 18.828125 -13.445312 18.5625 -12.644531 18.5625 -11.65625 L 18.5625 0 L 13.421875 0 L 13.421875 -11.90625 C 13.421875 -12.84375 13.148438 -13.585938 12.609375 -14.140625 C 12.078125 -14.703125 11.378906 -14.984375 10.515625 -14.984375 C 9.640625 -14.984375 8.898438 -14.660156 8.296875 -14.015625 C 7.703125 -13.367188 7.40625 -12.515625 7.40625 -11.453125 L 7.40625 0 Z M 2.109375 0 "/></g></g></g></svg>