<svg xmlns="http://www.w3.org/2000/svg" xmlns:xlink="http://www.w3.org/1999/xlink" width="500" zoomAndPan="magnify" viewBox="0 0 375 149.999998" height="200" preserveAspectRatio="xMidYMid meet" version="1.0"><defs><g/><clipPath id="3742ed3570"><path d="M 29.058594 49.949219 L 72.558594 49.949219 L 72.558594 105.449219 L 29.058594 105.449219 Z M 29.058594 49.949219 " clip-rule="nonzero"/></clipPath></defs><g clip-path="url(#3742ed3570)"><path fill="#000000" d="M 29.550781 54 C 29.066406 63.363281 39.386719 81.195312 44.402344 89.289062 C 44.433594 89.335938 44.492188 89.359375 44.546875 89.339844 C 44.601562 89.320312 44.636719 89.269531 44.632812 89.210938 C 43.769531 79.308594 41.046875 70.6875 48.722656 60.714844 C 48.722656 60.714844 48.722656 60.710938 48.726562 60.710938 C 49.535156 59.546875 50.335938 58.457031 51.191406 57.285156 C 52.332031 55.730469 53.570312 54.035156 54.917969 52.085938 C 54.949219 52.035156 54.945312 51.972656 54.90625 51.929688 C 54.867188 51.882812 54.800781 51.875 54.75 51.902344 C 46.835938 56.464844 37.09375 67 30.195312 54.804688 C 30.191406 54.800781 30.191406 54.800781 30.191406 54.796875 C 30.054688 54.519531 29.921875 54.238281 29.789062 53.953125 C 29.765625 53.898438 29.710938 53.871094 29.652344 53.882812 C 29.59375 53.894531 29.554688 53.941406 29.550781 54 Z M 47.820312 65.9375 C 47.773438 65.9375 47.734375 65.914062 47.710938 65.875 C 47.6875 65.832031 47.6875 65.785156 47.710938 65.746094 C 48.351562 64.648438 49.054688 63.546875 49.796875 62.460938 C 49.820312 62.421875 49.863281 62.402344 49.910156 62.40625 C 50.8125 62.503906 51.683594 62.660156 52.558594 62.886719 C 52.597656 62.894531 52.625 62.921875 52.640625 62.960938 C 52.65625 63 52.652344 63.039062 52.632812 63.074219 C 52.023438 64.082031 51.453125 65.109375 50.925781 66.144531 C 50.902344 66.195312 50.847656 66.222656 50.792969 66.210938 C 49.8125 66.019531 48.816406 65.925781 47.820312 65.9375 Z M 33.296875 82.742188 C 33.710938 85.847656 35.113281 88.851562 37.496094 91.242188 C 43.269531 97.03125 52.625 97.03125 58.398438 91.242188 C 63.3125 86.3125 64.105469 78.65625 60.460938 72.863281 C 60.441406 72.832031 60.4375 72.796875 60.445312 72.761719 C 60.457031 72.726562 60.476562 72.699219 60.511719 72.683594 C 61.511719 72.179688 62.570312 71.734375 63.652344 71.332031 C 63.710938 71.3125 63.773438 71.335938 63.804688 71.386719 C 67.734375 78.0625 67.078125 86.5625 62.105469 92.554688 C 62.0625 92.601562 62.066406 92.675781 62.113281 92.722656 L 65.21875 95.839844 C 65.269531 95.890625 65.347656 95.890625 65.398438 95.839844 L 65.808594 95.429688 C 65.890625 95.347656 66.03125 95.347656 66.113281 95.429688 L 72.496094 101.835938 C 72.539062 101.878906 72.5625 101.933594 72.5625 101.988281 L 72.558594 101.988281 C 72.558594 102.042969 72.539062 102.097656 72.496094 102.140625 L 69.257812 105.386719 C 69.21875 105.429688 69.164062 105.449219 69.109375 105.449219 L 69.109375 105.453125 C 69.054688 105.453125 69 105.429688 68.957031 105.386719 L 62.570312 98.980469 C 62.488281 98.898438 62.488281 98.757812 62.570312 98.675781 L 62.980469 98.265625 C 63.03125 98.214844 63.03125 98.136719 62.980469 98.085938 L 59.871094 94.96875 C 59.828125 94.921875 59.753906 94.921875 59.703125 94.960938 C 56.304688 97.800781 52.125 99.21875 47.949219 99.21875 C 38.25 99.21875 30.210938 91.667969 29.585938 81.96875 C 29.339844 78.214844 30.234375 74.402344 32.261719 71.097656 C 32.289062 71.054688 32.332031 71.035156 32.378906 71.039062 C 32.425781 71.042969 32.464844 71.070312 32.484375 71.113281 C 33.039062 72.449219 33.632812 73.773438 34.25 75.070312 C 34.265625 75.101562 34.269531 75.136719 34.253906 75.171875 C 33.277344 77.582031 32.957031 80.199219 33.296875 82.742188 Z M 64.398438 60.339844 C 64.398438 63.285156 67.964844 64.765625 70.042969 62.683594 C 72.117188 60.601562 70.640625 57.023438 67.703125 57.023438 C 65.878906 57.023438 64.398438 58.507812 64.398438 60.339844 Z M 60.488281 55.351562 C 60.523438 55.308594 60.582031 55.292969 60.636719 55.316406 C 60.6875 55.339844 60.71875 55.390625 60.710938 55.449219 C 60.183594 59.335938 61.445312 62.199219 62.859375 63.945312 C 64.277344 65.695312 65.859375 66.316406 69.363281 67.574219 C 69.414062 67.59375 69.449219 67.644531 69.445312 67.699219 C 69.441406 67.757812 69.40625 67.804688 69.351562 67.816406 C 65.390625 68.789062 60.25 70.183594 57.84375 72.121094 C 53.292969 75.773438 51.449219 81.375 49.289062 87.800781 C 49.269531 87.859375 49.214844 87.894531 49.152344 87.886719 C 49.089844 87.875 49.046875 87.824219 49.046875 87.761719 C 48.945312 82.929688 49.292969 75.207031 50.816406 71.070312 C 52.628906 66.144531 55.734375 61.140625 60.488281 55.351562 Z M 35.898438 53.550781 C 35.898438 51.5625 37.503906 49.949219 39.488281 49.949219 C 42.683594 49.949219 44.289062 53.835938 42.03125 56.101562 C 39.773438 58.363281 35.898438 56.753906 35.898438 53.550781 Z M 35.898438 53.550781 " fill-opacity="1" fill-rule="evenodd"/></g><g fill="#000000" fill-opacity="1"><g transform="translate(81.704142, 95.065031)"><g><path d="M 2.421875 -21.8125 L 8.46875 -21.8125 L 8.46875 1.015625 C 8.46875 3.535156 7.726562 5.363281 6.25 6.5 C 4.769531 7.632812 2.71875 8.171875 0.09375 8.109375 C -0.0625 8.109375 -0.226562 8.101562 -0.40625 8.09375 C -0.582031 8.09375 -0.785156 8.085938 -1.015625 8.078125 L -1.015625 3.359375 C -0.859375 3.359375 -0.71875 3.359375 -0.59375 3.359375 C -0.46875 3.367188 -0.347656 3.375 -0.234375 3.375 C 0.742188 3.375 1.429688 3.164062 1.828125 2.75 C 2.222656 2.34375 2.421875 1.726562 2.421875 0.90625 Z M 5.4375 -24.625 C 4.539062 -24.625 3.769531 -24.925781 3.125 -25.53125 C 2.488281 -26.132812 2.171875 -26.859375 2.171875 -27.703125 C 2.171875 -28.546875 2.488281 -29.265625 3.125 -29.859375 C 3.769531 -30.453125 4.539062 -30.75 5.4375 -30.75 C 6.332031 -30.75 7.101562 -30.453125 7.75 -29.859375 C 8.394531 -29.265625 8.71875 -28.546875 8.71875 -27.703125 C 8.71875 -26.859375 8.394531 -26.132812 7.75 -25.53125 C 7.101562 -24.925781 6.332031 -24.625 5.4375 -24.625 Z M 5.4375 -24.625 "/></g></g></g><g fill="#000000" fill-opacity="1"><g transform="translate(92.583787, 95.065031)"><g><path d="M 12.265625 0.421875 C 10.066406 0.421875 8.160156 -0.046875 6.546875 -0.984375 C 4.941406 -1.929688 3.703125 -3.25 2.828125 -4.9375 C 1.960938 -6.625 1.53125 -8.585938 1.53125 -10.828125 C 1.53125 -13.078125 1.960938 -15.046875 2.828125 -16.734375 C 3.703125 -18.429688 4.941406 -19.75 6.546875 -20.6875 C 8.160156 -21.632812 10.066406 -22.109375 12.265625 -22.109375 C 14.472656 -22.109375 16.378906 -21.632812 17.984375 -20.6875 C 19.585938 -19.75 20.828125 -18.429688 21.703125 -16.734375 C 22.578125 -15.046875 23.015625 -13.078125 23.015625 -10.828125 C 23.015625 -8.585938 22.578125 -6.625 21.703125 -4.9375 C 20.828125 -3.25 19.585938 -1.929688 17.984375 -0.984375 C 16.378906 -0.046875 14.472656 0.421875 12.265625 0.421875 Z M 12.296875 -4.265625 C 13.796875 -4.265625 14.929688 -4.890625 15.703125 -6.140625 C 16.472656 -7.390625 16.859375 -8.960938 16.859375 -10.859375 C 16.859375 -12.765625 16.472656 -14.34375 15.703125 -15.59375 C 14.929688 -16.851562 13.796875 -17.484375 12.296875 -17.484375 C 10.773438 -17.484375 9.625 -16.851562 8.84375 -15.59375 C 8.070312 -14.34375 7.6875 -12.765625 7.6875 -10.859375 C 7.6875 -8.960938 8.070312 -7.390625 8.84375 -6.140625 C 9.625 -4.890625 10.773438 -4.265625 12.296875 -4.265625 Z M 12.296875 -4.265625 "/></g></g></g><g fill="#000000" fill-opacity="1"><g transform="translate(117.1269, 95.065031)"><g><path d="M 2.53125 0 L 2.53125 -29.09375 L 8.578125 -29.09375 L 8.578125 -18.15625 L 8.765625 -18.15625 C 9.035156 -18.75 9.421875 -19.347656 9.921875 -19.953125 C 10.429688 -20.554688 11.097656 -21.066406 11.921875 -21.484375 C 12.742188 -21.898438 13.757812 -22.109375 14.96875 -22.109375 C 16.570312 -22.109375 18.039062 -21.691406 19.375 -20.859375 C 20.707031 -20.023438 21.78125 -18.773438 22.59375 -17.109375 C 23.40625 -15.453125 23.8125 -13.375 23.8125 -10.875 C 23.8125 -8.445312 23.414062 -6.394531 22.625 -4.71875 C 21.84375 -3.050781 20.78125 -1.785156 19.4375 -0.921875 C 18.101562 -0.0664062 16.609375 0.359375 14.953125 0.359375 C 13.785156 0.359375 12.789062 0.164062 11.96875 -0.21875 C 11.144531 -0.613281 10.472656 -1.101562 9.953125 -1.6875 C 9.441406 -2.28125 9.046875 -2.882812 8.765625 -3.5 L 8.5 -3.5 L 8.5 0 Z M 8.453125 -10.90625 C 8.453125 -8.96875 8.851562 -7.40625 9.65625 -6.21875 C 10.457031 -5.039062 11.585938 -4.453125 13.046875 -4.453125 C 14.523438 -4.453125 15.65625 -5.050781 16.4375 -6.25 C 17.226562 -7.445312 17.625 -9 17.625 -10.90625 C 17.625 -12.800781 17.234375 -14.335938 16.453125 -15.515625 C 15.671875 -16.691406 14.535156 -17.28125 13.046875 -17.28125 C 11.578125 -17.28125 10.441406 -16.703125 9.640625 -15.546875 C 8.847656 -14.398438 8.453125 -12.851562 8.453125 -10.90625 Z M 8.453125 -10.90625 "/></g></g></g><g fill="#000000" fill-opacity="1"><g transform="translate(142.53641, 95.065031)"><g><path d="M 8.46875 -29.09375 L 8.46875 0 L 2.421875 0 L 2.421875 -29.09375 Z M 8.46875 -29.09375 "/></g></g></g><g fill="#000000" fill-opacity="1"><g transform="translate(153.416056, 95.065031)"><g><path d="M 8.640625 0.40625 C 6.554688 0.40625 4.828125 -0.132812 3.453125 -1.21875 C 2.078125 -2.3125 1.390625 -3.9375 1.390625 -6.09375 C 1.390625 -7.71875 1.769531 -8.992188 2.53125 -9.921875 C 3.300781 -10.859375 4.304688 -11.539062 5.546875 -11.96875 C 6.796875 -12.394531 8.144531 -12.675781 9.59375 -12.8125 C 11.476562 -13 12.828125 -13.195312 13.640625 -13.40625 C 14.460938 -13.613281 14.875 -14.066406 14.875 -14.765625 L 14.875 -14.859375 C 14.875 -15.753906 14.59375 -16.445312 14.03125 -16.9375 C 13.46875 -17.4375 12.671875 -17.6875 11.640625 -17.6875 C 10.546875 -17.6875 9.675781 -17.445312 9.03125 -16.96875 C 8.382812 -16.5 7.957031 -15.898438 7.75 -15.171875 L 2.15625 -15.625 C 2.570312 -17.613281 3.601562 -19.191406 5.25 -20.359375 C 6.90625 -21.523438 9.039062 -22.109375 11.65625 -22.109375 C 13.28125 -22.109375 14.796875 -21.847656 16.203125 -21.328125 C 17.617188 -20.816406 18.757812 -20.019531 19.625 -18.9375 C 20.488281 -17.851562 20.921875 -16.445312 20.921875 -14.71875 L 20.921875 0 L 15.1875 0 L 15.1875 -3.03125 L 15.015625 -3.03125 C 14.484375 -2.007812 13.6875 -1.179688 12.625 -0.546875 C 11.570312 0.0859375 10.242188 0.40625 8.640625 0.40625 Z M 10.375 -3.765625 C 11.695312 -3.765625 12.785156 -4.148438 13.640625 -4.921875 C 14.492188 -5.691406 14.921875 -6.648438 14.921875 -7.796875 L 14.921875 -10.109375 C 14.679688 -9.953125 14.3125 -9.8125 13.8125 -9.6875 C 13.3125 -9.5625 12.78125 -9.453125 12.21875 -9.359375 C 11.65625 -9.273438 11.148438 -9.203125 10.703125 -9.140625 C 9.648438 -8.984375 8.796875 -8.679688 8.140625 -8.234375 C 7.492188 -7.796875 7.171875 -7.148438 7.171875 -6.296875 C 7.171875 -5.460938 7.472656 -4.832031 8.078125 -4.40625 C 8.679688 -3.976562 9.445312 -3.765625 10.375 -3.765625 Z M 10.375 -3.765625 "/></g></g></g><g fill="#000000" fill-opacity="1"><g transform="translate(176.624066, 95.065031)"><g><path d="M 12.25 8.5 C 9.3125 8.5 7.003906 7.921875 5.328125 6.765625 C 3.648438 5.609375 2.628906 4.207031 2.265625 2.5625 L 7.875 1.796875 C 8.113281 2.390625 8.59375 2.925781 9.3125 3.40625 C 10.03125 3.894531 11.054688 4.140625 12.390625 4.140625 C 13.703125 4.140625 14.785156 3.828125 15.640625 3.203125 C 16.503906 2.578125 16.9375 1.550781 16.9375 0.125 L 16.9375 -3.859375 L 16.671875 -3.859375 C 16.273438 -2.960938 15.570312 -2.144531 14.5625 -1.40625 C 13.5625 -0.675781 12.191406 -0.3125 10.453125 -0.3125 C 8.816406 -0.3125 7.328125 -0.691406 5.984375 -1.453125 C 4.648438 -2.222656 3.585938 -3.394531 2.796875 -4.96875 C 2.003906 -6.539062 1.609375 -8.535156 1.609375 -10.953125 C 1.609375 -13.429688 2.007812 -15.492188 2.8125 -17.140625 C 3.625 -18.785156 4.695312 -20.023438 6.03125 -20.859375 C 7.375 -21.691406 8.84375 -22.109375 10.4375 -22.109375 C 11.65625 -22.109375 12.675781 -21.898438 13.5 -21.484375 C 14.332031 -21.066406 15.003906 -20.554688 15.515625 -19.953125 C 16.023438 -19.347656 16.410156 -18.75 16.671875 -18.15625 L 16.90625 -18.15625 L 16.90625 -21.8125 L 22.90625 -21.8125 L 22.90625 0.21875 C 22.90625 2.019531 22.445312 3.535156 21.53125 4.765625 C 20.625 6.003906 19.367188 6.9375 17.765625 7.5625 C 16.171875 8.1875 14.332031 8.5 12.25 8.5 Z M 12.375 -4.859375 C 13.832031 -4.859375 14.957031 -5.394531 15.75 -6.46875 C 16.550781 -7.550781 16.953125 -9.054688 16.953125 -10.984375 C 16.953125 -12.890625 16.554688 -14.414062 15.765625 -15.5625 C 14.972656 -16.707031 13.84375 -17.28125 12.375 -17.28125 C 10.875 -17.28125 9.734375 -16.691406 8.953125 -15.515625 C 8.171875 -14.347656 7.78125 -12.835938 7.78125 -10.984375 C 7.78125 -9.097656 8.171875 -7.601562 8.953125 -6.5 C 9.742188 -5.40625 10.882812 -4.859375 12.375 -4.859375 Z M 12.375 -4.859375 "/></g></g></g><g fill="#000000" fill-opacity="1"><g transform="translate(201.948353, 95.065031)"><g><path d="M 2.53125 0 L 2.53125 -29.09375 L 8.578125 -29.09375 L 8.578125 -18.15625 L 8.765625 -18.15625 C 9.035156 -18.75 9.421875 -19.347656 9.921875 -19.953125 C 10.429688 -20.554688 11.097656 -21.066406 11.921875 -21.484375 C 12.742188 -21.898438 13.757812 -22.109375 14.96875 -22.109375 C 16.570312 -22.109375 18.039062 -21.691406 19.375 -20.859375 C 20.707031 -20.023438 21.78125 -18.773438 22.59375 -17.109375 C 23.40625 -15.453125 23.8125 -13.375 23.8125 -10.875 C 23.8125 -8.445312 23.414062 -6.394531 22.625 -4.71875 C 21.84375 -3.050781 20.78125 -1.785156 19.4375 -0.921875 C 18.101562 -0.0664062 16.609375 0.359375 14.953125 0.359375 C 13.785156 0.359375 12.789062 0.164062 11.96875 -0.21875 C 11.144531 -0.613281 10.472656 -1.101562 9.953125 -1.6875 C 9.441406 -2.28125 9.046875 -2.882812 8.765625 -3.5 L 8.5 -3.5 L 8.5 0 Z M 8.453125 -10.90625 C 8.453125 -8.96875 8.851562 -7.40625 9.65625 -6.21875 C 10.457031 -5.039062 11.585938 -4.453125 13.046875 -4.453125 C 14.523438 -4.453125 15.65625 -5.050781 16.4375 -6.25 C 17.226562 -7.445312 17.625 -9 17.625 -10.90625 C 17.625 -12.800781 17.234375 -14.335938 16.453125 -15.515625 C 15.671875 -16.691406 14.535156 -17.28125 13.046875 -17.28125 C 11.578125 -17.28125 10.441406 -16.703125 9.640625 -15.546875 C 8.847656 -14.398438 8.453125 -12.851562 8.453125 -10.90625 Z M 8.453125 -10.90625 "/></g></g></g><g fill="#000000" fill-opacity="1"><g transform="translate(227.357863, 95.065031)"><g><path d="M 12.359375 0.421875 C 10.117188 0.421875 8.1875 -0.03125 6.5625 -0.9375 C 4.945312 -1.851562 3.703125 -3.148438 2.828125 -4.828125 C 1.960938 -6.515625 1.53125 -8.507812 1.53125 -10.8125 C 1.53125 -13.050781 1.960938 -15.019531 2.828125 -16.71875 C 3.703125 -18.414062 4.929688 -19.738281 6.515625 -20.6875 C 8.109375 -21.632812 9.972656 -22.109375 12.109375 -22.109375 C 14.035156 -22.109375 15.769531 -21.695312 17.3125 -20.875 C 18.863281 -20.0625 20.09375 -18.832031 21 -17.1875 C 21.914062 -15.550781 22.375 -13.492188 22.375 -11.015625 L 22.375 -9.359375 L 7.515625 -9.359375 L 7.515625 -9.34375 C 7.515625 -7.71875 7.957031 -6.4375 8.84375 -5.5 C 9.738281 -4.5625 10.941406 -4.09375 12.453125 -4.09375 C 13.472656 -4.09375 14.347656 -4.304688 15.078125 -4.734375 C 15.816406 -5.160156 16.335938 -5.789062 16.640625 -6.625 L 22.25 -6.25 C 21.820312 -4.21875 20.738281 -2.597656 19 -1.390625 C 17.269531 -0.179688 15.054688 0.421875 12.359375 0.421875 Z M 7.515625 -13.109375 L 16.671875 -13.109375 C 16.660156 -14.410156 16.242188 -15.476562 15.421875 -16.3125 C 14.597656 -17.15625 13.53125 -17.578125 12.21875 -17.578125 C 10.875 -17.578125 9.769531 -17.140625 8.90625 -16.265625 C 8.039062 -15.398438 7.578125 -14.347656 7.515625 -13.109375 Z M 7.515625 -13.109375 "/></g></g></g><g fill="#000000" fill-opacity="1"><g transform="translate(251.261835, 95.065031)"><g><path d="M 5.953125 0.375 C 5.015625 0.375 4.207031 0.0390625 3.53125 -0.625 C 2.863281 -1.289062 2.535156 -2.097656 2.546875 -3.046875 C 2.535156 -3.972656 2.863281 -4.765625 3.53125 -5.421875 C 4.207031 -6.085938 5.015625 -6.421875 5.953125 -6.421875 C 6.859375 -6.421875 7.648438 -6.085938 8.328125 -5.421875 C 9.003906 -4.765625 9.347656 -3.972656 9.359375 -3.046875 C 9.347656 -2.097656 9.003906 -1.289062 8.328125 -0.625 C 7.648438 0.0390625 6.859375 0.375 5.953125 0.375 Z M 5.953125 0.375 "/></g></g></g><g fill="#000000" fill-opacity="1"><g transform="translate(263.164113, 95.065031)"><g><path d="M 12.265625 0.421875 C 10.035156 0.421875 8.117188 -0.0507812 6.515625 -1 C 4.910156 -1.945312 3.675781 -3.269531 2.8125 -4.96875 C 1.957031 -6.664062 1.53125 -8.617188 1.53125 -10.828125 C 1.53125 -13.054688 1.960938 -15.015625 2.828125 -16.703125 C 3.703125 -18.398438 4.9375 -19.722656 6.53125 -20.671875 C 8.132812 -21.628906 10.039062 -22.109375 12.25 -22.109375 C 14.144531 -22.109375 15.8125 -21.757812 17.25 -21.0625 C 18.6875 -20.375 19.816406 -19.40625 20.640625 -18.15625 C 21.472656 -16.90625 21.929688 -15.4375 22.015625 -13.75 L 16.3125 -13.75 C 16.144531 -14.84375 15.71875 -15.722656 15.03125 -16.390625 C 14.34375 -17.054688 13.445312 -17.390625 12.34375 -17.390625 C 10.9375 -17.390625 9.804688 -16.820312 8.953125 -15.6875 C 8.109375 -14.5625 7.6875 -12.96875 7.6875 -10.90625 C 7.6875 -8.820312 8.109375 -7.207031 8.953125 -6.0625 C 9.804688 -4.925781 10.9375 -4.359375 12.34375 -4.359375 C 13.382812 -4.359375 14.257812 -4.671875 14.96875 -5.296875 C 15.675781 -5.929688 16.125 -6.832031 16.3125 -8 L 22.015625 -8 C 21.921875 -6.332031 21.46875 -4.863281 20.65625 -3.59375 C 19.851562 -2.320312 18.738281 -1.332031 17.3125 -0.625 C 15.894531 0.0703125 14.210938 0.421875 12.265625 0.421875 Z M 12.265625 0.421875 "/></g></g></g><g fill="#000000" fill-opacity="1"><g transform="translate(286.656188, 95.065031)"><g><path d="M 12.265625 0.421875 C 10.066406 0.421875 8.160156 -0.046875 6.546875 -0.984375 C 4.941406 -1.929688 3.703125 -3.25 2.828125 -4.9375 C 1.960938 -6.625 1.53125 -8.585938 1.53125 -10.828125 C 1.53125 -13.078125 1.960938 -15.046875 2.828125 -16.734375 C 3.703125 -18.429688 4.941406 -19.75 6.546875 -20.6875 C 8.160156 -21.632812 10.066406 -22.109375 12.265625 -22.109375 C 14.472656 -22.109375 16.378906 -21.632812 17.984375 -20.6875 C 19.585938 -19.75 20.828125 -18.429688 21.703125 -16.734375 C 22.578125 -15.046875 23.015625 -13.078125 23.015625 -10.828125 C 23.015625 -8.585938 22.578125 -6.625 21.703125 -4.9375 C 20.828125 -3.25 19.585938 -1.929688 17.984375 -0.984375 C 16.378906 -0.046875 14.472656 0.421875 12.265625 0.421875 Z M 12.296875 -4.265625 C 13.796875 -4.265625 14.929688 -4.890625 15.703125 -6.140625 C 16.472656 -7.390625 16.859375 -8.960938 16.859375 -10.859375 C 16.859375 -12.765625 16.472656 -14.34375 15.703125 -15.59375 C 14.929688 -16.851562 13.796875 -17.484375 12.296875 -17.484375 C 10.773438 -17.484375 9.625 -16.851562 8.84375 -15.59375 C 8.070312 -14.34375 7.6875 -12.765625 7.6875 -10.859375 C 7.6875 -8.960938 8.070312 -7.390625 8.84375 -6.140625 C 9.625 -4.890625 10.773438 -4.265625 12.296875 -4.265625 Z M 12.296875 -4.265625 "/></g></g></g><g fill="#000000" fill-opacity="1"><g transform="translate(311.199301, 95.065031)"><g><path d="M 2.421875 0 L 2.421875 -21.8125 L 8.1875 -21.8125 L 8.1875 -17.96875 L 8.4375 -17.96875 C 8.894531 -19.257812 9.65625 -20.269531 10.71875 -21 C 11.78125 -21.738281 13.046875 -22.109375 14.515625 -22.109375 C 16.015625 -22.109375 17.289062 -21.734375 18.34375 -20.984375 C 19.394531 -20.242188 20.09375 -19.238281 20.4375 -17.96875 L 20.671875 -17.96875 C 21.109375 -19.21875 21.910156 -20.21875 23.078125 -20.96875 C 24.253906 -21.726562 25.644531 -22.109375 27.25 -22.109375 C 29.28125 -22.109375 30.929688 -21.457031 32.203125 -20.15625 C 33.484375 -18.863281 34.125 -17.035156 34.125 -14.671875 L 34.125 0 L 28.078125 0 L 28.078125 -13.484375 C 28.078125 -14.691406 27.753906 -15.597656 27.109375 -16.203125 C 26.472656 -16.804688 25.671875 -17.109375 24.703125 -17.109375 C 23.597656 -17.109375 22.738281 -16.757812 22.125 -16.0625 C 21.507812 -15.363281 21.203125 -14.453125 21.203125 -13.328125 L 21.203125 0 L 15.34375 0 L 15.34375 -13.609375 C 15.34375 -14.679688 15.035156 -15.53125 14.421875 -16.15625 C 13.816406 -16.789062 13.015625 -17.109375 12.015625 -17.109375 C 11.015625 -17.109375 10.171875 -16.742188 9.484375 -16.015625 C 8.804688 -15.285156 8.46875 -14.3125 8.46875 -13.09375 L 8.46875 0 Z M 2.421875 0 "/></g></g></g></svg>