<svg xmlns="http://www.w3.org/2000/svg" xmlns:xlink="http://www.w3.org/1999/xlink" width="200" zoomAndPan="magnify" viewBox="0 0 150 74.999997" height="100" preserveAspectRatio="xMidYMid meet" version="1.0"><defs><g/><clipPath id="f08c2bc43b"><path d="M 6.148438 27.582031 L 24.148438 27.582031 L 24.148438 50.832031 L 6.148438 50.832031 Z M 6.148438 27.582031 " clip-rule="nonzero"/></clipPath></defs><g clip-path="url(#f08c2bc43b)"><path fill="#000000" d="M 6.355469 29.277344 C 6.15625 33.199219 10.425781 40.671875 12.5 44.058594 C 12.511719 44.082031 12.535156 44.089844 12.558594 44.082031 C 12.582031 44.074219 12.597656 44.050781 12.59375 44.027344 C 12.238281 39.878906 11.113281 36.269531 14.285156 32.089844 C 14.289062 32.089844 14.289062 32.089844 14.289062 32.089844 C 14.625 31.601562 14.953125 31.144531 15.308594 30.652344 C 15.78125 30 16.292969 29.292969 16.851562 28.476562 C 16.863281 28.453125 16.863281 28.425781 16.84375 28.410156 C 16.828125 28.390625 16.804688 28.386719 16.78125 28.398438 C 13.507812 30.308594 9.476562 34.722656 6.621094 29.613281 C 6.5625 29.496094 6.507812 29.375 6.453125 29.257812 C 6.445312 29.234375 6.421875 29.222656 6.398438 29.226562 C 6.375 29.230469 6.355469 29.253906 6.355469 29.277344 Z M 13.914062 34.277344 C 13.894531 34.277344 13.878906 34.269531 13.871094 34.25 C 13.859375 34.234375 13.859375 34.214844 13.871094 34.199219 C 14.132812 33.738281 14.425781 33.277344 14.730469 32.820312 C 14.742188 32.804688 14.761719 32.796875 14.78125 32.800781 C 15.152344 32.839844 15.511719 32.90625 15.875 33 C 15.890625 33.003906 15.902344 33.015625 15.910156 33.03125 C 15.914062 33.046875 15.914062 33.0625 15.90625 33.078125 C 15.652344 33.5 15.417969 33.929688 15.199219 34.363281 C 15.1875 34.386719 15.167969 34.398438 15.144531 34.394531 C 14.738281 34.3125 14.328125 34.273438 13.914062 34.277344 Z M 7.90625 41.316406 C 8.078125 42.621094 8.65625 43.878906 9.644531 44.878906 C 12.03125 47.304688 15.902344 47.304688 18.289062 44.878906 C 20.324219 42.8125 20.652344 39.605469 19.144531 37.179688 C 19.136719 37.164062 19.132812 37.152344 19.136719 37.136719 C 19.140625 37.121094 19.152344 37.109375 19.164062 37.105469 C 19.578125 36.894531 20.015625 36.707031 20.464844 36.539062 C 20.488281 36.53125 20.515625 36.539062 20.527344 36.5625 C 22.152344 39.355469 21.882812 42.917969 19.824219 45.429688 C 19.808594 45.449219 19.808594 45.480469 19.828125 45.5 L 21.113281 46.804688 C 21.132812 46.824219 21.167969 46.824219 21.1875 46.804688 L 21.355469 46.632812 C 21.390625 46.597656 21.449219 46.597656 21.480469 46.632812 L 24.125 49.316406 C 24.140625 49.335938 24.152344 49.355469 24.152344 49.378906 L 24.148438 49.378906 C 24.148438 49.402344 24.140625 49.425781 24.125 49.445312 L 22.785156 50.804688 C 22.765625 50.820312 22.746094 50.828125 22.722656 50.828125 L 22.722656 50.832031 C 22.699219 50.832031 22.675781 50.824219 22.660156 50.804688 L 20.015625 48.121094 C 19.984375 48.085938 19.984375 48.027344 20.015625 47.992188 L 20.1875 47.820312 C 20.207031 47.800781 20.207031 47.765625 20.1875 47.746094 L 18.902344 46.441406 C 18.882812 46.421875 18.851562 46.417969 18.832031 46.4375 C 17.425781 47.625 15.695312 48.21875 13.964844 48.21875 C 9.953125 48.21875 6.628906 45.058594 6.367188 40.992188 C 6.269531 39.421875 6.636719 37.824219 7.476562 36.4375 C 7.488281 36.421875 7.503906 36.414062 7.527344 36.414062 C 7.546875 36.417969 7.5625 36.429688 7.570312 36.445312 C 7.800781 37.003906 8.042969 37.558594 8.300781 38.105469 C 8.308594 38.117188 8.308594 38.132812 8.300781 38.144531 C 7.898438 39.15625 7.765625 40.253906 7.90625 41.316406 Z M 20.773438 31.933594 C 20.773438 33.167969 22.25 33.789062 23.109375 32.914062 C 23.964844 32.042969 23.355469 30.542969 22.140625 30.542969 C 21.386719 30.542969 20.773438 31.167969 20.773438 31.933594 Z M 19.15625 29.84375 C 19.171875 29.824219 19.195312 29.820312 19.214844 29.828125 C 19.238281 29.839844 19.25 29.859375 19.246094 29.882812 C 19.03125 31.511719 19.550781 32.710938 20.136719 33.441406 C 20.722656 34.175781 21.378906 34.4375 22.828125 34.964844 C 22.847656 34.972656 22.863281 34.992188 22.859375 35.015625 C 22.859375 35.039062 22.84375 35.058594 22.820312 35.066406 C 21.183594 35.472656 19.058594 36.058594 18.0625 36.867188 C 16.179688 38.398438 15.414062 40.746094 14.523438 43.4375 C 14.515625 43.460938 14.492188 43.476562 14.464844 43.472656 C 14.441406 43.46875 14.421875 43.445312 14.421875 43.421875 C 14.378906 41.398438 14.523438 38.160156 15.152344 36.429688 C 15.902344 34.367188 17.1875 32.269531 19.15625 29.84375 Z M 8.980469 29.089844 C 8.980469 28.253906 9.648438 27.578125 10.46875 27.578125 C 11.789062 27.578125 12.453125 29.207031 11.519531 30.15625 C 10.585938 31.105469 8.980469 30.429688 8.980469 29.089844 Z M 8.980469 29.089844 " fill-opacity="1" fill-rule="evenodd"/></g><g fill="#000000" fill-opacity="1"><g transform="translate(26.613762, 46.273523)"><g><path d="M 1.0625 -9.609375 L 3.734375 -9.609375 L 3.734375 0.4375 C 3.734375 1.550781 3.40625 2.359375 2.75 2.859375 C 2.101562 3.367188 1.203125 3.609375 0.046875 3.578125 C -0.0234375 3.578125 -0.0976562 3.570312 -0.171875 3.5625 C -0.253906 3.5625 -0.347656 3.5625 -0.453125 3.5625 L -0.453125 1.484375 C -0.378906 1.484375 -0.316406 1.484375 -0.265625 1.484375 C -0.210938 1.484375 -0.15625 1.484375 -0.09375 1.484375 C 0.332031 1.484375 0.628906 1.390625 0.796875 1.203125 C 0.972656 1.023438 1.0625 0.757812 1.0625 0.40625 Z M 2.390625 -10.859375 C 2.003906 -10.859375 1.664062 -10.988281 1.375 -11.25 C 1.09375 -11.507812 0.953125 -11.828125 0.953125 -12.203125 C 0.953125 -12.578125 1.09375 -12.894531 1.375 -13.15625 C 1.664062 -13.414062 2.003906 -13.546875 2.390625 -13.546875 C 2.785156 -13.546875 3.125 -13.414062 3.40625 -13.15625 C 3.695312 -12.894531 3.84375 -12.578125 3.84375 -12.203125 C 3.84375 -11.828125 3.695312 -11.507812 3.40625 -11.25 C 3.125 -10.988281 2.785156 -10.859375 2.390625 -10.859375 Z M 2.390625 -10.859375 "/></g></g></g><g fill="#000000" fill-opacity="1"><g transform="translate(31.408035, 46.273523)"><g><path d="M 5.40625 0.1875 C 4.4375 0.1875 3.597656 -0.0195312 2.890625 -0.4375 C 2.179688 -0.851562 1.632812 -1.429688 1.25 -2.171875 C 0.863281 -2.921875 0.671875 -3.785156 0.671875 -4.765625 C 0.671875 -5.765625 0.863281 -6.632812 1.25 -7.375 C 1.632812 -8.125 2.179688 -8.703125 2.890625 -9.109375 C 3.597656 -9.523438 4.4375 -9.734375 5.40625 -9.734375 C 6.375 -9.734375 7.210938 -9.523438 7.921875 -9.109375 C 8.628906 -8.703125 9.175781 -8.125 9.5625 -7.375 C 9.945312 -6.632812 10.140625 -5.765625 10.140625 -4.765625 C 10.140625 -3.785156 9.945312 -2.921875 9.5625 -2.171875 C 9.175781 -1.429688 8.628906 -0.851562 7.921875 -0.4375 C 7.210938 -0.0195312 6.375 0.1875 5.40625 0.1875 Z M 5.421875 -1.875 C 6.078125 -1.875 6.570312 -2.148438 6.90625 -2.703125 C 7.25 -3.253906 7.421875 -3.945312 7.421875 -4.78125 C 7.421875 -5.625 7.25 -6.320312 6.90625 -6.875 C 6.570312 -7.425781 6.078125 -7.703125 5.421875 -7.703125 C 4.742188 -7.703125 4.234375 -7.425781 3.890625 -6.875 C 3.554688 -6.320312 3.390625 -5.625 3.390625 -4.78125 C 3.390625 -3.945312 3.554688 -3.253906 3.890625 -2.703125 C 4.234375 -2.148438 4.742188 -1.875 5.421875 -1.875 Z M 5.421875 -1.875 "/></g></g></g><g fill="#000000" fill-opacity="1"><g transform="translate(42.223319, 46.273523)"><g><path d="M 1.109375 0 L 1.109375 -12.8125 L 3.78125 -12.8125 L 3.78125 -8 L 3.859375 -8 C 3.984375 -8.257812 4.15625 -8.519531 4.375 -8.78125 C 4.59375 -9.050781 4.882812 -9.273438 5.25 -9.453125 C 5.613281 -9.640625 6.0625 -9.734375 6.59375 -9.734375 C 7.300781 -9.734375 7.945312 -9.550781 8.53125 -9.1875 C 9.125 -8.820312 9.597656 -8.273438 9.953125 -7.546875 C 10.304688 -6.816406 10.484375 -5.898438 10.484375 -4.796875 C 10.484375 -3.722656 10.3125 -2.816406 9.96875 -2.078125 C 9.625 -1.335938 9.15625 -0.78125 8.5625 -0.40625 C 7.976562 -0.03125 7.320312 0.15625 6.59375 0.15625 C 6.070312 0.15625 5.628906 0.0703125 5.265625 -0.09375 C 4.910156 -0.269531 4.617188 -0.488281 4.390625 -0.75 C 4.160156 -1.007812 3.984375 -1.273438 3.859375 -1.546875 L 3.75 -1.546875 L 3.75 0 Z M 3.71875 -4.8125 C 3.71875 -3.957031 3.894531 -3.269531 4.25 -2.75 C 4.601562 -2.226562 5.101562 -1.96875 5.75 -1.96875 C 6.40625 -1.96875 6.90625 -2.226562 7.25 -2.75 C 7.59375 -3.28125 7.765625 -3.96875 7.765625 -4.8125 C 7.765625 -5.644531 7.59375 -6.316406 7.25 -6.828125 C 6.90625 -7.347656 6.40625 -7.609375 5.75 -7.609375 C 5.101562 -7.609375 4.601562 -7.351562 4.25 -6.84375 C 3.894531 -6.34375 3.71875 -5.664062 3.71875 -4.8125 Z M 3.71875 -4.8125 "/></g></g></g><g fill="#000000" fill-opacity="1"><g transform="translate(53.420389, 46.273523)"><g><path d="M 3.734375 -12.8125 L 3.734375 0 L 1.0625 0 L 1.0625 -12.8125 Z M 3.734375 -12.8125 "/></g></g></g><g fill="#000000" fill-opacity="1"><g transform="translate(58.214662, 46.273523)"><g><path d="M 3.8125 0.1875 C 2.882812 0.1875 2.117188 -0.0507812 1.515625 -0.53125 C 0.910156 -1.019531 0.609375 -1.738281 0.609375 -2.6875 C 0.609375 -3.40625 0.773438 -3.96875 1.109375 -4.375 C 1.453125 -4.78125 1.898438 -5.078125 2.453125 -5.265625 C 3.003906 -5.460938 3.59375 -5.585938 4.21875 -5.640625 C 5.0625 -5.722656 5.660156 -5.8125 6.015625 -5.90625 C 6.367188 -6 6.546875 -6.203125 6.546875 -6.515625 L 6.546875 -6.546875 C 6.546875 -6.941406 6.421875 -7.25 6.171875 -7.46875 C 5.929688 -7.6875 5.582031 -7.796875 5.125 -7.796875 C 4.644531 -7.796875 4.265625 -7.691406 3.984375 -7.484375 C 3.703125 -7.273438 3.515625 -7.007812 3.421875 -6.6875 L 0.953125 -6.890625 C 1.140625 -7.765625 1.59375 -8.457031 2.3125 -8.96875 C 3.039062 -9.476562 3.984375 -9.734375 5.140625 -9.734375 C 5.847656 -9.734375 6.515625 -9.617188 7.140625 -9.390625 C 7.765625 -9.171875 8.265625 -8.820312 8.640625 -8.34375 C 9.023438 -7.863281 9.21875 -7.242188 9.21875 -6.484375 L 9.21875 0 L 6.6875 0 L 6.6875 -1.328125 L 6.609375 -1.328125 C 6.378906 -0.878906 6.03125 -0.515625 5.5625 -0.234375 C 5.101562 0.046875 4.519531 0.1875 3.8125 0.1875 Z M 4.5625 -1.65625 C 5.144531 -1.65625 5.625 -1.820312 6 -2.15625 C 6.382812 -2.5 6.578125 -2.925781 6.578125 -3.4375 L 6.578125 -4.453125 C 6.472656 -4.378906 6.3125 -4.316406 6.09375 -4.265625 C 5.875 -4.210938 5.640625 -4.164062 5.390625 -4.125 C 5.140625 -4.082031 4.914062 -4.050781 4.71875 -4.03125 C 4.25 -3.957031 3.867188 -3.820312 3.578125 -3.625 C 3.296875 -3.4375 3.15625 -3.148438 3.15625 -2.765625 C 3.15625 -2.398438 3.285156 -2.125 3.546875 -1.9375 C 3.816406 -1.75 4.15625 -1.65625 4.5625 -1.65625 Z M 4.5625 -1.65625 "/></g></g></g><g fill="#000000" fill-opacity="1"><g transform="translate(68.441616, 46.273523)"><g><path d="M 5.390625 3.75 C 4.097656 3.75 3.082031 3.492188 2.34375 2.984375 C 1.601562 2.472656 1.15625 1.851562 1 1.125 L 3.46875 0.796875 C 3.570312 1.054688 3.78125 1.289062 4.09375 1.5 C 4.414062 1.71875 4.867188 1.828125 5.453125 1.828125 C 6.035156 1.828125 6.515625 1.6875 6.890625 1.40625 C 7.265625 1.132812 7.453125 0.6875 7.453125 0.0625 L 7.453125 -1.703125 L 7.34375 -1.703125 C 7.164062 -1.304688 6.859375 -0.945312 6.421875 -0.625 C 5.984375 -0.300781 5.378906 -0.140625 4.609375 -0.140625 C 3.890625 -0.140625 3.234375 -0.304688 2.640625 -0.640625 C 2.046875 -0.984375 1.570312 -1.5 1.21875 -2.1875 C 0.875 -2.882812 0.703125 -3.765625 0.703125 -4.828125 C 0.703125 -5.921875 0.878906 -6.828125 1.234375 -7.546875 C 1.597656 -8.273438 2.070312 -8.820312 2.65625 -9.1875 C 3.25 -9.550781 3.894531 -9.734375 4.59375 -9.734375 C 5.132812 -9.734375 5.585938 -9.640625 5.953125 -9.453125 C 6.316406 -9.273438 6.609375 -9.050781 6.828125 -8.78125 C 7.054688 -8.519531 7.226562 -8.257812 7.34375 -8 L 7.453125 -8 L 7.453125 -9.609375 L 10.09375 -9.609375 L 10.09375 0.09375 C 10.09375 0.894531 9.890625 1.566406 9.484375 2.109375 C 9.085938 2.648438 8.535156 3.054688 7.828125 3.328125 C 7.117188 3.609375 6.304688 3.75 5.390625 3.75 Z M 5.453125 -2.140625 C 6.097656 -2.140625 6.59375 -2.375 6.9375 -2.84375 C 7.289062 -3.320312 7.46875 -3.988281 7.46875 -4.84375 C 7.46875 -5.6875 7.289062 -6.359375 6.9375 -6.859375 C 6.59375 -7.359375 6.097656 -7.609375 5.453125 -7.609375 C 4.796875 -7.609375 4.296875 -7.347656 3.953125 -6.828125 C 3.609375 -6.316406 3.4375 -5.65625 3.4375 -4.84375 C 3.4375 -4.007812 3.609375 -3.347656 3.953125 -2.859375 C 4.296875 -2.378906 4.796875 -2.140625 5.453125 -2.140625 Z M 5.453125 -2.140625 "/></g></g></g><g fill="#000000" fill-opacity="1"><g transform="translate(79.601139, 46.273523)"><g><path d="M 1.109375 0 L 1.109375 -12.8125 L 3.78125 -12.8125 L 3.78125 -8 L 3.859375 -8 C 3.984375 -8.257812 4.15625 -8.519531 4.375 -8.78125 C 4.59375 -9.050781 4.882812 -9.273438 5.25 -9.453125 C 5.613281 -9.640625 6.0625 -9.734375 6.59375 -9.734375 C 7.300781 -9.734375 7.945312 -9.550781 8.53125 -9.1875 C 9.125 -8.820312 9.597656 -8.273438 9.953125 -7.546875 C 10.304688 -6.816406 10.484375 -5.898438 10.484375 -4.796875 C 10.484375 -3.722656 10.3125 -2.816406 9.96875 -2.078125 C 9.625 -1.335938 9.15625 -0.78125 8.5625 -0.40625 C 7.976562 -0.03125 7.320312 0.15625 6.59375 0.15625 C 6.070312 0.15625 5.628906 0.0703125 5.265625 -0.09375 C 4.910156 -0.269531 4.617188 -0.488281 4.390625 -0.75 C 4.160156 -1.007812 3.984375 -1.273438 3.859375 -1.546875 L 3.75 -1.546875 L 3.75 0 Z M 3.71875 -4.8125 C 3.71875 -3.957031 3.894531 -3.269531 4.25 -2.75 C 4.601562 -2.226562 5.101562 -1.96875 5.75 -1.96875 C 6.40625 -1.96875 6.90625 -2.226562 7.25 -2.75 C 7.59375 -3.28125 7.765625 -3.96875 7.765625 -4.8125 C 7.765625 -5.644531 7.59375 -6.316406 7.25 -6.828125 C 6.90625 -7.347656 6.40625 -7.609375 5.75 -7.609375 C 5.101562 -7.609375 4.601562 -7.351562 4.25 -6.84375 C 3.894531 -6.34375 3.71875 -5.664062 3.71875 -4.8125 Z M 3.71875 -4.8125 "/></g></g></g><g fill="#000000" fill-opacity="1"><g transform="translate(90.798209, 46.273523)"><g><path d="M 5.4375 0.1875 C 4.457031 0.1875 3.609375 -0.0078125 2.890625 -0.40625 C 2.179688 -0.8125 1.632812 -1.382812 1.25 -2.125 C 0.863281 -2.863281 0.671875 -3.742188 0.671875 -4.765625 C 0.671875 -5.753906 0.863281 -6.617188 1.25 -7.359375 C 1.632812 -8.109375 2.175781 -8.691406 2.875 -9.109375 C 3.570312 -9.523438 4.394531 -9.734375 5.34375 -9.734375 C 6.1875 -9.734375 6.945312 -9.550781 7.625 -9.1875 C 8.3125 -8.832031 8.851562 -8.289062 9.25 -7.5625 C 9.65625 -6.84375 9.859375 -5.941406 9.859375 -4.859375 L 9.859375 -4.125 L 3.3125 -4.125 C 3.3125 -3.40625 3.503906 -2.835938 3.890625 -2.421875 C 4.285156 -2.003906 4.816406 -1.796875 5.484375 -1.796875 C 5.929688 -1.796875 6.316406 -1.890625 6.640625 -2.078125 C 6.972656 -2.265625 7.203125 -2.546875 7.328125 -2.921875 L 9.796875 -2.75 C 9.609375 -1.863281 9.132812 -1.148438 8.375 -0.609375 C 7.613281 -0.078125 6.632812 0.1875 5.4375 0.1875 Z M 3.3125 -5.78125 L 7.34375 -5.78125 C 7.34375 -6.351562 7.160156 -6.820312 6.796875 -7.1875 C 6.429688 -7.5625 5.957031 -7.75 5.375 -7.75 C 4.789062 -7.75 4.304688 -7.554688 3.921875 -7.171875 C 3.546875 -6.785156 3.34375 -6.320312 3.3125 -5.78125 Z M 3.3125 -5.78125 "/></g></g></g><g fill="#000000" fill-opacity="1"><g transform="translate(101.331842, 46.273523)"><g><path d="M 2.625 0.15625 C 2.207031 0.15625 1.847656 0.0078125 1.546875 -0.28125 C 1.253906 -0.570312 1.113281 -0.925781 1.125 -1.34375 C 1.113281 -1.75 1.253906 -2.097656 1.546875 -2.390625 C 1.847656 -2.679688 2.207031 -2.828125 2.625 -2.828125 C 3.019531 -2.828125 3.367188 -2.679688 3.671875 -2.390625 C 3.972656 -2.097656 4.125 -1.75 4.125 -1.34375 C 4.125 -0.925781 3.972656 -0.570312 3.671875 -0.28125 C 3.367188 0.0078125 3.019531 0.15625 2.625 0.15625 Z M 2.625 0.15625 "/></g></g></g><g fill="#000000" fill-opacity="1"><g transform="translate(106.576749, 46.273523)"><g><path d="M 5.40625 0.1875 C 4.425781 0.1875 3.582031 -0.0195312 2.875 -0.4375 C 2.164062 -0.851562 1.617188 -1.4375 1.234375 -2.1875 C 0.859375 -2.9375 0.671875 -3.796875 0.671875 -4.765625 C 0.671875 -5.753906 0.863281 -6.617188 1.25 -7.359375 C 1.632812 -8.109375 2.175781 -8.691406 2.875 -9.109375 C 3.582031 -9.523438 4.421875 -9.734375 5.390625 -9.734375 C 6.234375 -9.734375 6.96875 -9.582031 7.59375 -9.28125 C 8.226562 -8.976562 8.726562 -8.550781 9.09375 -8 C 9.457031 -7.445312 9.660156 -6.800781 9.703125 -6.0625 L 7.1875 -6.0625 C 7.113281 -6.539062 6.925781 -6.925781 6.625 -7.21875 C 6.320312 -7.507812 5.925781 -7.65625 5.4375 -7.65625 C 4.820312 -7.65625 4.328125 -7.40625 3.953125 -6.90625 C 3.578125 -6.414062 3.390625 -5.71875 3.390625 -4.8125 C 3.390625 -3.894531 3.570312 -3.179688 3.9375 -2.671875 C 4.3125 -2.171875 4.8125 -1.921875 5.4375 -1.921875 C 5.894531 -1.921875 6.28125 -2.054688 6.59375 -2.328125 C 6.90625 -2.609375 7.101562 -3.007812 7.1875 -3.53125 L 9.703125 -3.53125 C 9.660156 -2.789062 9.457031 -2.140625 9.09375 -1.578125 C 8.738281 -1.023438 8.25 -0.59375 7.625 -0.28125 C 7 0.03125 6.257812 0.1875 5.40625 0.1875 Z M 5.40625 0.1875 "/></g></g></g><g fill="#000000" fill-opacity="1"><g transform="translate(116.928879, 46.273523)"><g><path d="M 5.40625 0.1875 C 4.4375 0.1875 3.597656 -0.0195312 2.890625 -0.4375 C 2.179688 -0.851562 1.632812 -1.429688 1.25 -2.171875 C 0.863281 -2.921875 0.671875 -3.785156 0.671875 -4.765625 C 0.671875 -5.765625 0.863281 -6.632812 1.25 -7.375 C 1.632812 -8.125 2.179688 -8.703125 2.890625 -9.109375 C 3.597656 -9.523438 4.4375 -9.734375 5.40625 -9.734375 C 6.375 -9.734375 7.210938 -9.523438 7.921875 -9.109375 C 8.628906 -8.703125 9.175781 -8.125 9.5625 -7.375 C 9.945312 -6.632812 10.140625 -5.765625 10.140625 -4.765625 C 10.140625 -3.785156 9.945312 -2.921875 9.5625 -2.171875 C 9.175781 -1.429688 8.628906 -0.851562 7.921875 -0.4375 C 7.210938 -0.0195312 6.375 0.1875 5.40625 0.1875 Z M 5.421875 -1.875 C 6.078125 -1.875 6.570312 -2.148438 6.90625 -2.703125 C 7.25 -3.253906 7.421875 -3.945312 7.421875 -4.78125 C 7.421875 -5.625 7.25 -6.320312 6.90625 -6.875 C 6.570312 -7.425781 6.078125 -7.703125 5.421875 -7.703125 C 4.742188 -7.703125 4.234375 -7.425781 3.890625 -6.875 C 3.554688 -6.320312 3.390625 -5.625 3.390625 -4.78125 C 3.390625 -3.945312 3.554688 -3.253906 3.890625 -2.703125 C 4.234375 -2.148438 4.742188 -1.875 5.421875 -1.875 Z M 5.421875 -1.875 "/></g></g></g><g fill="#000000" fill-opacity="1"><g transform="translate(127.744163, 46.273523)"><g><path d="M 1.0625 0 L 1.0625 -9.609375 L 3.609375 -9.609375 L 3.609375 -7.921875 L 3.71875 -7.921875 C 3.914062 -8.484375 4.25 -8.925781 4.71875 -9.25 C 5.1875 -9.570312 5.742188 -9.734375 6.390625 -9.734375 C 7.054688 -9.734375 7.617188 -9.566406 8.078125 -9.234375 C 8.546875 -8.910156 8.851562 -8.472656 9 -7.921875 L 9.109375 -7.921875 C 9.304688 -8.472656 9.660156 -8.910156 10.171875 -9.234375 C 10.691406 -9.566406 11.300781 -9.734375 12 -9.734375 C 12.894531 -9.734375 13.625 -9.445312 14.1875 -8.875 C 14.75 -8.3125 15.03125 -7.507812 15.03125 -6.46875 L 15.03125 0 L 12.375 0 L 12.375 -5.9375 C 12.375 -6.46875 12.226562 -6.867188 11.9375 -7.140625 C 11.65625 -7.410156 11.304688 -7.546875 10.890625 -7.546875 C 10.398438 -7.546875 10.019531 -7.390625 9.75 -7.078125 C 9.476562 -6.765625 9.34375 -6.363281 9.34375 -5.875 L 9.34375 0 L 6.765625 0 L 6.765625 -6 C 6.765625 -6.46875 6.628906 -6.84375 6.359375 -7.125 C 6.085938 -7.40625 5.734375 -7.546875 5.296875 -7.546875 C 4.847656 -7.546875 4.472656 -7.382812 4.171875 -7.0625 C 3.878906 -6.738281 3.734375 -6.304688 3.734375 -5.765625 L 3.734375 0 Z M 1.0625 0 "/></g></g></g></svg>