<svg xmlns="http://www.w3.org/2000/svg" xmlns:xlink="http://www.w3.org/1999/xlink" width="500" zoomAndPan="magnify" viewBox="0 0 375 374.999991" height="500" preserveAspectRatio="xMidYMid meet" version="1.0"><defs><clipPath id="968ac14da8"><path d="M 179 148 L 245.878906 148 L 245.878906 227 L 179 227 Z M 179 148 " clip-rule="nonzero"/></clipPath><clipPath id="f9ef523c09"><path d="M 140 218 L 211 218 L 211 309.984375 L 140 309.984375 Z M 140 218 " clip-rule="nonzero"/></clipPath></defs><path fill="#000000" d="M 169.511719 74.738281 C 168.800781 73.832031 168.058594 72.972656 167.484375 71.996094 C 167.75 70.960938 167.914062 69.898438 167.832031 68.800781 C 167.621094 66.652344 166.46875 66.023438 165.28125 66.269531 C 164.652344 65.515625 163.570312 64.925781 163.003906 66.082031 C 162.855469 66.457031 162.980469 67.175781 163.464844 67.179688 C 163.484375 67.226562 163.5 67.269531 163.515625 67.3125 C 162.683594 68.179688 162.160156 69.453125 162.507812 70.777344 C 162.605469 71.195312 162.597656 71.636719 162.683594 72.0625 C 162.589844 75.675781 161.828125 79.613281 160.371094 83.050781 C 159.179688 85.597656 157.25 87.671875 155.738281 90.027344 C 153.722656 93.371094 152.085938 96.921875 150.351562 100.414062 C 149.828125 101.242188 149.21875 101.996094 148.558594 102.714844 C 146.9375 104.339844 145.3125 105.972656 144.074219 107.925781 C 141.394531 112.558594 139.558594 114.871094 134.230469 116.492188 C 133.972656 116.5625 133.707031 116.613281 133.4375 116.65625 C 132.496094 116.75 131.558594 116.910156 130.632812 117.164062 C 129.695312 117.175781 128.882812 118.183594 129.324219 119.074219 C 129.492188 119.394531 129.828125 119.503906 130.148438 119.613281 C 131.671875 120.292969 133.332031 119.800781 134.914062 119.628906 C 136.539062 119.421875 138.175781 119.433594 139.796875 119.695312 C 141.378906 120.078125 142.921875 120.605469 144.46875 121.101562 C 147.082031 122.003906 149.820312 122.667969 152.195312 124.121094 C 153.976562 125.355469 155.347656 127.066406 156.816406 128.636719 C 160.539062 133 166.464844 134.789062 169.804688 139.515625 C 171.042969 141.207031 171.480469 143.253906 172.003906 145.246094 C 172.734375 147.492188 173.992188 149.535156 174.6875 151.804688 C 175.453125 154.574219 176.03125 157.859375 178.628906 159.539062 C 179.128906 159.824219 179.625 159.949219 180.09375 159.949219 C 182.203125 159.949219 183.878906 157.414062 183.835938 155.289062 C 183.996094 153.320312 183.449219 151.394531 183.246094 149.449219 C 183.21875 146.289062 184.519531 143.371094 185.796875 140.550781 C 187.054688 137.457031 188.625 134.519531 189.910156 131.433594 C 190.90625 129.199219 191.269531 126.761719 192.136719 124.488281 C 193.191406 122.257812 195.242188 120.753906 196.890625 118.992188 C 199.140625 117.042969 201.179688 114.882812 203.351562 112.855469 C 205.207031 111.597656 207.066406 110.332031 209.042969 109.289062 C 209.078125 109.289062 209.109375 109.300781 209.140625 109.300781 C 210.195312 109.300781 211.117188 108.542969 211.640625 107.574219 C 211.640625 107.566406 211.644531 107.5625 211.648438 107.554688 C 212.332031 106.28125 212.328125 104.636719 211.039062 103.824219 C 210.011719 103.238281 208.828125 103.007812 207.738281 102.566406 C 205.664062 101.742188 203.675781 100.6875 201.519531 100.082031 C 199.878906 99.65625 198.230469 99.273438 196.539062 99.066406 C 195.078125 98.753906 193.761719 98.019531 192.351562 97.5625 C 191.230469 97.257812 190.132812 96.921875 189.039062 96.558594 C 184.90625 95.113281 183.652344 90.550781 180.386719 87.949219 C 178.253906 85.769531 175.429688 84.320312 173.546875 81.898438 C 172.503906 80.5625 172.113281 78.867188 171.277344 77.417969 C 170.753906 76.484375 170.15625 75.597656 169.507812 74.753906 Z M 175.976562 93.128906 C 177.667969 94.226562 179.359375 95.40625 181.234375 96.175781 C 182.511719 96.992188 183.839844 97.726562 185.121094 98.550781 C 187.152344 99.863281 188.867188 101.59375 190.855469 102.960938 C 193.828125 104.9375 196.714844 106.269531 200.042969 107.5 C 194.433594 110.765625 189.9375 116.835938 186.949219 122.15625 C 185.136719 126.011719 182.992188 129.769531 181.636719 133.816406 C 180.335938 138.40625 181.003906 143.195312 180.273438 147.859375 C 179.519531 146.210938 178.367188 144.808594 177.375 143.296875 C 175.707031 140.371094 173.476562 137.859375 171.371094 135.25 C 168.949219 131.335938 166.644531 127.125 162.992188 124.199219 C 161.007812 122.636719 158.617188 121.726562 156.472656 120.417969 C 154.996094 119.339844 153.65625 118.085938 152.15625 117.023438 C 149.574219 115.265625 146.253906 114.65625 143.203125 115.238281 C 142.570312 115.390625 141.941406 115.539062 141.304688 115.6875 C 143.046875 114.703125 145.109375 113.792969 146.5625 112.394531 C 148.78125 110.359375 150.675781 107.996094 152.378906 105.519531 C 154.257812 102.984375 156.882812 101.121094 158.75 98.566406 C 160.351562 96.503906 161.769531 94.285156 162.671875 91.832031 C 164.699219 87.394531 164.605469 82.789062 165.644531 78.023438 C 165.726562 77.609375 165.832031 77.203125 165.945312 76.796875 C 166.703125 79.273438 167.804688 81.710938 169.507812 83.679688 C 170.71875 85.25 171.453125 87.082031 172.324219 88.839844 C 173.257812 90.496094 174.433594 91.996094 175.972656 93.132812 Z M 175.976562 93.128906 " fill-opacity="1" fill-rule="nonzero"/><g clip-path="url(#968ac14da8)"><path fill="#000000" d="M 205.027344 148.488281 C 203.140625 149.542969 202.164062 151.855469 202.574219 153.9375 C 202.84375 155.753906 204.265625 157.0625 205.113281 158.617188 C 204.828125 159.734375 204.445312 160.824219 204.183594 161.953125 C 203.351562 164.414062 203.304688 167.46875 202.199219 169.960938 C 200.992188 172.246094 198.917969 173.917969 197.214844 175.808594 C 194.296875 178.738281 192.707031 182.769531 189.515625 185.433594 C 187.9375 186.574219 186.28125 187.617188 184.605469 188.609375 C 183.660156 188.859375 182.679688 189.058594 181.878906 189.664062 C 179.984375 191.019531 179.089844 194.378906 181.207031 195.9375 C 182.65625 196.820312 184.429688 196.914062 186.050781 197.320312 C 189.179688 197.953125 191.695312 198.871094 194.953125 199.304688 C 196.621094 199.652344 198.003906 200.710938 199.503906 201.480469 C 202.832031 203.0625 205.609375 205.582031 207.847656 208.488281 C 208.945312 210.113281 209.703125 211.898438 210.648438 213.601562 C 212.089844 215.917969 213.171875 218.457031 214.554688 220.800781 C 215.78125 222.65625 216.515625 225.253906 218.742188 226.15625 C 218.964844 226.222656 219.183594 226.257812 219.394531 226.257812 C 220.394531 226.257812 221.285156 225.554688 221.824219 224.628906 C 222.601562 223.226562 222.394531 221.539062 222.367188 220 C 222.359375 218.796875 222.292969 217.601562 222.226562 216.398438 C 222.164062 213.515625 222.078125 210.570312 222.957031 207.789062 C 223.988281 204.75 225.867188 202.089844 227.53125 199.378906 C 229.226562 197.402344 231.367188 195.875 233.667969 194.6875 C 235.429688 193.855469 237.359375 193.527344 239.1875 192.878906 C 240.742188 192.273438 242.335938 191.667969 243.789062 190.851562 C 245.191406 189.847656 245.90625 187.445312 244.46875 186.183594 C 243.902344 185.703125 242.992188 185.621094 242.308594 185.476562 C 241.28125 185.339844 240.328125 184.9375 239.355469 184.644531 C 236.578125 184.296875 234.324219 182.648438 232.394531 180.71875 C 229.863281 177.785156 227.460938 174.652344 224.4375 172.175781 C 223.105469 170.839844 221.625 169.652344 220.394531 168.21875 C 219.425781 167.03125 218.355469 165.941406 217.203125 164.929688 C 212.320312 160.332031 210.328125 157.519531 209.324219 150.722656 C 209.132812 148.488281 206.953125 147.34375 205.015625 148.496094 Z M 217.054688 173.148438 C 219.777344 175.78125 222.082031 178.898438 225.074219 181.230469 C 227.269531 183.023438 230.128906 183.496094 232.488281 185.007812 C 234.019531 186 235.257812 187.371094 236.679688 188.5 C 234.539062 189.332031 232.273438 189.734375 230.15625 190.644531 C 223.933594 193.210938 222.46875 199.273438 221.0625 205.203125 C 220.320312 207.636719 219.15625 209.894531 218.273438 212.277344 C 217.148438 209.953125 215.691406 207.722656 213.695312 206.058594 C 211.648438 204.238281 209.058594 203.199219 207.027344 201.351562 C 204.867188 199.351562 203.503906 196.6875 201.574219 194.492188 C 198.660156 191.433594 194.570312 189.453125 190.488281 188.542969 C 193.253906 185.148438 197.039062 182.90625 200.425781 180.214844 C 203.726562 177.519531 204.859375 173.265625 206.371094 169.464844 C 207.21875 167.414062 208.066406 165.324219 208.226562 163.082031 C 209.28125 164.453125 210.234375 165.964844 211.226562 167.398438 C 212.878906 169.582031 214.890625 171.480469 217.054688 173.144531 Z M 217.054688 173.148438 " fill-opacity="1" fill-rule="nonzero"/></g><g clip-path="url(#f9ef523c09)"><path fill="#000000" d="M 208.039062 251.375 C 207.066406 251.347656 206.082031 251.398438 205.109375 251.453125 C 203.109375 251.566406 201.105469 251.679688 199.152344 251.082031 C 195.410156 249.664062 191.390625 248.847656 187.914062 246.800781 C 184.410156 244.800781 182.707031 240.929688 179.410156 238.65625 C 177.898438 237.558594 176.1875 236.792969 174.773438 235.535156 C 171.617188 232.648438 169.324219 229.019531 167.714844 225.070312 C 168.035156 223.019531 168.152344 220.816406 167.527344 218.816406 C 166.972656 217.535156 165.429688 218.148438 165.300781 219.34375 C 165.273438 219.933594 165.367188 220.535156 165.324219 221.132812 C 163.714844 220.28125 161.886719 221.941406 161.539062 223.519531 C 160.921875 225.769531 163.140625 227.601562 164.386719 229.21875 C 164.007812 231.660156 162.625 233.734375 161.453125 235.859375 C 160.191406 238.011719 159.164062 240.621094 157.84375 243.089844 C 156.152344 245.671875 154.042969 247.796875 152.308594 250.386719 C 150.929688 252.570312 149.695312 254.84375 148.539062 257.15625 C 146.800781 259.996094 144.625 262.691406 141.714844 264.382812 C 140.257812 265.265625 139.546875 267.65625 140.882812 268.898438 C 141.433594 269.410156 142.289062 269.394531 143.042969 269.378906 C 143.90625 269.378906 144.765625 269.457031 145.628906 269.570312 C 147.808594 270.09375 149.882812 271 152.035156 271.625 C 156.039062 272.835938 160.472656 273.519531 163.570312 276.570312 C 166.625 279.726562 168.238281 283.894531 170.835938 287.382812 C 172.703125 290.289062 175.386719 292.578125 177.265625 295.460938 C 179.722656 300.105469 180.214844 306.234375 184.75 309.5 C 185.148438 309.671875 185.539062 309.753906 185.925781 309.753906 C 188.234375 309.753906 190.199219 306.933594 189.871094 304.679688 C 188.75 300.917969 186.089844 297.476562 186.628906 293.332031 C 187.136719 289.753906 188.0625 286.25 188.441406 282.648438 C 188.683594 280.492188 188.828125 278.324219 188.921875 276.15625 C 188.9375 274.441406 188.988281 272.671875 189.738281 271.09375 C 191.039062 268.511719 192.746094 266.089844 194.980469 264.226562 C 195.832031 263.488281 197.148438 262.730469 198.039062 261.953125 C 199.691406 260.65625 201.382812 259.390625 203.261719 258.441406 C 205.113281 257.683594 206.953125 256.902344 208.769531 256.085938 C 208.769531 256.085938 208.769531 256.085938 208.757812 256.085938 C 210.828125 254.878906 210.773438 251.535156 208.019531 251.371094 Z M 187.21875 265.578125 C 185.101562 269.8125 183.960938 274.503906 183.289062 279.175781 C 182.429688 283.613281 182.699219 288.105469 183.289062 292.550781 C 178.234375 282.429688 176.832031 279.5 166.636719 273.703125 C 163.886719 272.074219 161.421875 269.289062 158.765625 267.402344 C 155.332031 265.328125 151.671875 262.992188 147.554688 262.796875 C 149.398438 260.273438 152.296875 258.816406 154.246094 256.390625 C 157.15625 253.597656 158.953125 249.953125 160.65625 246.355469 C 163.972656 241.605469 166.675781 238.929688 166.773438 232.644531 C 167.96875 234.671875 168.816406 236.894531 169.957031 238.957031 C 172.21875 242.929688 175.101562 246.792969 179.34375 248.761719 C 181.421875 249.726562 183.691406 250.167969 185.835938 250.984375 C 187.644531 251.761719 189.363281 252.703125 191.089844 253.652344 C 193.898438 255.445312 197.226562 255.78125 200.375 256.640625 C 194.703125 258.566406 190.207031 259.859375 187.214844 265.589844 Z M 187.21875 265.578125 " fill-opacity="1" fill-rule="nonzero"/></g></svg>