<svg xmlns="http://www.w3.org/2000/svg" xmlns:xlink="http://www.w3.org/1999/xlink" width="500" zoomAndPan="magnify" viewBox="0 0 375 374.999991" height="500" preserveAspectRatio="xMidYMid meet" version="1.0"><defs><clipPath id="91e642812a"><path d="M 72.425781 100 L 302.675781 100 L 302.675781 275.253906 L 72.425781 275.253906 Z M 72.425781 100 " clip-rule="nonzero"/></clipPath></defs><g clip-path="url(#91e642812a)"><path fill="#000000" d="M 76.691406 275.203125 C 88.113281 275.199219 99.421875 272.652344 110.085938 268.652344 C 146.699219 254.976562 175.933594 224.703125 190.128906 188.492188 C 231.449219 189.15625 272.808594 151.578125 293.921875 116.324219 C 294.167969 122.722656 294.175781 129.132812 294.148438 135.535156 C 294.136719 138.007812 294.183594 140.496094 294.039062 142.960938 C 293.902344 145.253906 296.050781 147.167969 298.242188 147.167969 C 300.53125 147.214844 302.4375 145.222656 302.449219 142.964844 C 302.613281 139.515625 302.53125 136.058594 302.574219 132.605469 C 302.582031 127.589844 302.566406 122.570312 302.382812 117.558594 C 301.992188 112.859375 302.488281 107.855469 300.90625 103.363281 C 299.625 100.292969 296.019531 99.761719 293.21875 100.972656 C 288.597656 102.410156 283.992188 103.890625 279.359375 105.289062 C 273.433594 107.101562 267.695312 108.722656 261.574219 109.871094 C 257.671875 111.480469 258.480469 117.375 262.648438 117.914062 C 271.03125 117.058594 279.125 114.199219 287.203125 111.613281 C 285.742188 113.980469 284.160156 116.28125 282.644531 118.59375 C 262.421875 147.273438 230.109375 178.433594 193.199219 180.066406 C 207.515625 146.6875 182.167969 122.640625 174.714844 156.210938 C 154.203125 131.125 124.730469 149.65625 146.65625 172.105469 C 156.179688 180.753906 168.652344 185.980469 181.320312 187.835938 C 167.171875 222.035156 138.625 250.246094 103.363281 262.140625 C 96.769531 264.269531 90.011719 265.867188 83.105469 266.523438 C 79.316406 267.011719 72.746094 265.453125 72.484375 270.996094 C 72.480469 273.246094 74.40625 275.261719 76.691406 275.203125 Z M 264.664062 109.824219 C 264.726562 109.839844 264.785156 109.859375 264.847656 109.875 C 264.863281 109.890625 264.878906 109.90625 264.890625 109.921875 C 264.816406 109.886719 264.742188 109.855469 264.664062 109.824219 Z M 157.441406 169.992188 C 152.773438 166.613281 144.128906 159.9375 148.765625 153.679688 C 158.027344 148.871094 170.328125 161.226562 172.679688 169.699219 C 173.523438 173.210938 178.644531 173.871094 180.367188 170.707031 C 182.230469 163.601562 182.300781 155.503906 186.21875 149.003906 C 192.515625 158.476562 187.496094 170.007812 184.4375 179.746094 C 174.8125 178.746094 165.535156 175.261719 157.441406 169.992188 Z M 157.441406 169.992188 " fill-opacity="1" fill-rule="nonzero"/></g></svg>