<svg xmlns="http://www.w3.org/2000/svg" xmlns:xlink="http://www.w3.org/1999/xlink" width="500" zoomAndPan="magnify" viewBox="0 0 375 374.999991" height="500" preserveAspectRatio="xMidYMid meet" version="1.0"><defs><clipPath id="4d2f325b1c"><path d="M 186 271 L 223 271 L 223 287.480469 L 186 287.480469 Z M 186 271 " clip-rule="nonzero"/></clipPath><clipPath id="42fcacbbe3"><path d="M 102.019531 149 L 120 149 L 120 158 L 102.019531 158 Z M 102.019531 149 " clip-rule="nonzero"/></clipPath><clipPath id="3472d105fb"><path d="M 199 87.230469 L 211 87.230469 L 211 106 L 199 106 Z M 199 87.230469 " clip-rule="nonzero"/></clipPath></defs><path fill="#000000" d="M 188.222656 113.265625 C 184.84375 113.265625 181.3125 113.5 177.628906 113.964844 C 177.5 113.980469 177.375 114.007812 177.25 114.046875 C 147.691406 122.832031 131.453125 141.800781 128.539062 170.945312 C 128.53125 171.046875 128.527344 171.152344 128.53125 171.257812 C 128.847656 180.71875 131.230469 189.347656 135.683594 197.132812 C 138.957031 203 147.019531 212.601562 159.867188 225.941406 L 159.863281 225.941406 L 168.160156 237.398438 C 168.304688 237.589844 168.472656 237.761719 168.664062 237.90625 L 168.660156 237.90625 C 169.800781 239.179688 172.253906 245.179688 176.027344 255.902344 C 176.371094 256.875 177.285156 257.484375 178.261719 257.484375 C 178.523438 257.484375 178.789062 257.441406 179.046875 257.351562 C 180.28125 256.917969 180.933594 255.566406 180.5 254.335938 C 176.453125 242.839844 173.636719 236.261719 172.050781 234.597656 C 171.976562 234.519531 171.902344 234.445312 171.824219 234.378906 L 163.597656 223.023438 C 163.535156 222.933594 163.460938 222.847656 163.386719 222.769531 C 150.746094 209.652344 142.886719 200.335938 139.8125 194.8125 L 139.800781 194.789062 C 135.761719 187.726562 133.585938 179.886719 133.273438 171.273438 L 133.269531 171.273438 C 136.003906 144.375 151.054688 126.828125 178.414062 118.636719 C 181.734375 118.222656 184.921875 118.015625 187.96875 118.015625 C 209.824219 118.015625 224.636719 128.640625 232.40625 149.890625 C 236.042969 160.070312 237.4375 169.195312 236.585938 177.277344 C 236.585938 177.296875 236.582031 177.320312 236.582031 177.34375 C 236.40625 179.648438 235.671875 183.167969 234.386719 187.902344 L 234.382812 187.902344 C 227.976562 206.570312 224.308594 218.558594 223.386719 223.859375 L 223.382812 223.859375 C 221.929688 231.371094 221.773438 238.734375 222.914062 245.953125 C 223.097656 247.117188 224.105469 247.949219 225.25 247.949219 C 225.371094 247.949219 225.496094 247.941406 225.621094 247.921875 C 226.914062 247.714844 227.796875 246.503906 227.59375 245.214844 C 226.539062 238.53125 226.6875 231.699219 228.046875 224.714844 L 228.054688 224.671875 C 228.9375 219.605469 232.554688 207.820312 238.90625 189.316406 C 238.921875 189.269531 238.9375 189.222656 238.953125 189.171875 C 240.308594 184.175781 241.09375 180.375 241.300781 177.769531 C 242.222656 168.972656 240.746094 159.144531 236.863281 148.285156 L 236.855469 148.269531 C 228.328125 124.933594 212.117188 113.265625 188.222656 113.265625 Z M 188.222656 113.265625 " fill-opacity="1" fill-rule="nonzero"/><path fill="#000000" d="M 211.601562 233.828125 C 210.410156 233.828125 209.382812 234.722656 209.25 235.933594 C 209.105469 237.234375 210.046875 238.402344 211.347656 238.542969 C 216.589844 239.117188 219.773438 239.78125 220.898438 240.527344 C 220.945312 240.558594 220.996094 240.589844 221.050781 240.621094 C 223.335938 241.90625 224.390625 242.925781 224.214844 243.683594 C 224.199219 243.746094 224.1875 243.8125 224.179688 243.882812 C 223.765625 246.75 218.539062 249.949219 208.5 253.480469 L 208.496094 253.480469 C 202.886719 255.164062 197.9375 256.007812 193.648438 256.007812 C 193.5625 256.007812 193.476562 256.007812 193.390625 256.007812 C 193.382812 256.007812 193.378906 256.007812 193.371094 256.007812 C 193.351562 256.007812 193.332031 256.007812 193.308594 256.007812 C 192.757812 256.023438 192.222656 256.03125 191.699219 256.03125 C 186.980469 256.03125 183.398438 255.4375 180.960938 254.253906 C 180.515625 253.886719 180.214844 253.542969 180.0625 253.222656 C 179.261719 251.566406 182.308594 249.082031 189.199219 245.769531 C 190.375 245.203125 190.871094 243.789062 190.304688 242.609375 C 189.894531 241.765625 189.050781 241.273438 188.167969 241.273438 C 187.824219 241.273438 187.472656 241.347656 187.140625 241.507812 C 177.40625 246.1875 173.621094 250.777344 175.792969 255.273438 C 176.285156 256.296875 177.09375 257.246094 178.210938 258.117188 C 178.328125 258.207031 178.453125 258.289062 178.585938 258.355469 C 181.703125 259.957031 186.09375 260.761719 191.75 260.761719 C 192.289062 260.761719 192.835938 260.753906 193.394531 260.738281 C 193.480469 260.738281 193.5625 260.738281 193.644531 260.738281 C 198.421875 260.738281 203.851562 259.820312 209.9375 257.988281 C 209.972656 257.976562 210.007812 257.964844 210.039062 257.953125 C 221.777344 253.828125 228.042969 249.414062 228.84375 244.710938 L 228.839844 244.710938 C 229.523438 241.695312 227.730469 238.972656 223.46875 236.550781 L 223.464844 236.550781 C 221.671875 235.394531 217.804688 234.492188 211.863281 233.84375 C 211.777344 233.832031 211.6875 233.828125 211.601562 233.828125 Z M 211.601562 233.828125 " fill-opacity="1" fill-rule="nonzero"/><path fill="#000000" d="M 227.566406 243.8125 C 227.027344 243.8125 226.488281 243.992188 226.042969 244.367188 C 225.039062 245.207031 224.910156 246.699219 225.75 247.699219 C 225.882812 247.855469 226.007812 248.011719 226.125 248.167969 C 228.476562 251.316406 227.230469 254.691406 222.386719 258.300781 C 222.289062 258.371094 222.199219 258.453125 222.113281 258.539062 C 220.132812 260.546875 213.425781 262.863281 202 265.476562 C 198.039062 266.308594 194.472656 266.726562 191.304688 266.726562 C 187.796875 266.726562 184.777344 266.214844 182.242188 265.195312 L 182.238281 265.195312 C 180.640625 264.308594 179.722656 263.1875 179.480469 261.828125 L 179.476562 261.828125 C 179.363281 260.46875 180.03125 259.316406 181.476562 258.375 C 182.570312 257.660156 182.878906 256.195312 182.164062 255.101562 C 181.710938 254.40625 180.953125 254.027344 180.179688 254.027344 C 179.734375 254.027344 179.285156 254.152344 178.886719 254.414062 C 175.828125 256.402344 174.453125 259.039062 174.761719 262.316406 C 174.765625 262.359375 174.773438 262.40625 174.78125 262.453125 C 175.238281 265.429688 177.007812 267.75 180.082031 269.410156 C 180.15625 269.449219 180.230469 269.484375 180.304688 269.515625 C 183.4375 270.804688 187.105469 271.449219 191.316406 271.449219 C 194.839844 271.449219 198.738281 271 203.019531 270.09375 L 203.058594 270.085938 C 215.152344 267.320312 222.578125 264.625 225.339844 262.003906 L 225.335938 262.003906 C 232.613281 256.539062 234.140625 250.984375 229.921875 245.339844 C 229.75 245.109375 229.570312 244.882812 229.378906 244.65625 C 228.910156 244.097656 228.242188 243.8125 227.566406 243.8125 Z M 227.566406 243.8125 " fill-opacity="1" fill-rule="nonzero"/><path fill="#000000" d="M 226.828125 256.847656 C 226.597656 256.847656 226.359375 256.882812 226.128906 256.953125 C 224.875 257.339844 224.175781 258.664062 224.5625 259.914062 C 224.625 260.105469 224.679688 260.300781 224.726562 260.488281 C 226.203125 266.226562 221.898438 270.394531 211.816406 273 L 211.8125 273 C 204.457031 274.300781 198.996094 274.953125 195.421875 274.953125 C 193.734375 274.953125 192.46875 274.804688 191.621094 274.515625 C 191.589844 274.503906 191.554688 274.492188 191.519531 274.484375 C 187.597656 273.332031 185.671875 271.363281 185.746094 268.574219 C 185.777344 267.269531 184.746094 266.183594 183.4375 266.148438 C 183.417969 266.148438 183.394531 266.148438 183.375 266.148438 C 182.09375 266.148438 181.042969 267.167969 181.007812 268.453125 C 180.871094 273.660156 183.921875 277.179688 190.160156 279.015625 L 190.15625 279.015625 C 191.386719 279.421875 193.136719 279.625 195.40625 279.625 C 199.496094 279.625 205.273438 278.964844 212.738281 277.640625 C 212.796875 277.628906 212.855469 277.617188 212.914062 277.601562 C 226.117188 274.214844 231.585938 268.117188 229.316406 259.3125 C 229.25 259.046875 229.171875 258.78125 229.089844 258.515625 C 228.777344 257.5 227.839844 256.847656 226.828125 256.847656 Z M 226.828125 256.847656 " fill-opacity="1" fill-rule="nonzero"/><g clip-path="url(#4d2f325b1c)"><path fill="#000000" d="M 218.53125 271.921875 C 217.894531 271.921875 217.265625 272.171875 216.796875 272.671875 C 215.902344 273.628906 215.957031 275.125 216.910156 276.015625 C 216.976562 276.078125 217.035156 276.136719 217.085938 276.195312 C 217.453125 276.601562 217.136719 277.253906 216.140625 278.144531 C 213.242188 280.726562 209.96875 282.183594 206.324219 282.503906 C 205.035156 282.601562 203.835938 282.652344 202.722656 282.652344 C 199.789062 282.652344 197.457031 282.3125 195.730469 281.636719 L 195.726562 281.636719 C 193.800781 280.710938 192.203125 278.964844 190.933594 276.398438 C 190.519531 275.5625 189.679688 275.078125 188.808594 275.078125 C 188.453125 275.078125 188.097656 275.15625 187.761719 275.320312 C 186.585938 275.898438 186.105469 277.316406 186.683594 278.488281 C 188.449219 282.0625 190.804688 284.546875 193.75 285.9375 C 193.792969 285.957031 193.835938 285.976562 193.878906 285.996094 C 196.175781 286.917969 199.144531 287.378906 202.789062 287.378906 C 204.019531 287.378906 205.328125 287.324219 206.714844 287.21875 L 206.746094 287.21875 C 211.433594 286.800781 215.617188 284.953125 219.300781 281.671875 L 219.300781 281.667969 C 222.652344 278.671875 223.089844 275.792969 220.617188 273.039062 L 220.617188 273.035156 C 220.472656 272.875 220.3125 272.714844 220.144531 272.558594 C 219.6875 272.132812 219.109375 271.921875 218.53125 271.921875 Z M 218.53125 271.921875 " fill-opacity="1" fill-rule="nonzero"/></g><path fill="#000000" d="M 194.730469 247.015625 C 194.722656 247.195312 194.738281 247.378906 194.773438 247.554688 C 194.734375 247.382812 194.71875 247.203125 194.726562 247.015625 Z M 177.164062 202.597656 C 176.703125 202.597656 176.238281 202.730469 175.832031 203.007812 C 174.75 203.746094 174.472656 205.214844 175.207031 206.296875 C 180.410156 213.910156 184.25 220.65625 186.722656 226.53125 L 186.730469 226.546875 C 187.3125 227.898438 187.867188 229.265625 188.394531 230.652344 L 188.394531 230.65625 C 192.402344 241.144531 194.539062 246.808594 194.796875 247.644531 L 194.792969 247.644531 C 194.804688 247.691406 194.816406 247.738281 194.832031 247.785156 C 196.066406 251.84375 196.679688 254.492188 196.664062 255.730469 C 196.652344 257.039062 197.699219 258.109375 199.007812 258.121094 C 199.019531 258.121094 199.027344 258.121094 199.035156 258.121094 C 200.332031 258.121094 201.390625 257.078125 201.402344 255.78125 C 201.421875 254.074219 200.757812 250.996094 199.40625 246.546875 L 199.402344 246.546875 C 199.386719 246.476562 199.371094 246.40625 199.347656 246.332031 C 199.09375 245.472656 196.917969 239.6875 192.824219 228.972656 C 192.273438 227.527344 191.695312 226.101562 191.089844 224.695312 C 188.492188 218.527344 184.503906 211.507812 179.121094 203.628906 C 178.664062 202.957031 177.921875 202.597656 177.164062 202.597656 Z M 177.164062 202.597656 " fill-opacity="1" fill-rule="nonzero"/><path fill="#000000" d="M 199.675781 199.574219 C 198.410156 199.574219 197.363281 200.570312 197.308594 201.839844 C 197.109375 206.660156 197.171875 213.457031 197.496094 222.222656 L 197.496094 222.242188 C 197.722656 227.351562 198.121094 231.601562 198.691406 234.988281 L 198.699219 235.039062 C 200.414062 244.027344 203.007812 250.585938 206.488281 254.726562 C 206.957031 255.28125 207.625 255.570312 208.304688 255.570312 C 208.839844 255.570312 209.378906 255.390625 209.824219 255.015625 C 210.828125 254.175781 210.957031 252.6875 210.117188 251.683594 C 207.175781 248.183594 204.925781 242.359375 203.367188 234.207031 L 203.363281 234.207031 C 202.828125 231.011719 202.449219 226.960938 202.230469 222.050781 C 201.914062 213.40625 201.851562 206.734375 202.042969 202.035156 C 202.097656 200.730469 201.082031 199.628906 199.773438 199.574219 C 199.742188 199.574219 199.707031 199.574219 199.675781 199.574219 Z M 199.675781 199.574219 " fill-opacity="1" fill-rule="nonzero"/><path fill="#000000" d="M 206.375 184.136719 C 207.113281 185.722656 207.34375 187.0625 207.070312 188.164062 L 207.066406 188.164062 C 206.417969 189.550781 205.789062 190.246094 205.179688 190.246094 C 205.132812 190.246094 205.085938 190.242188 205.039062 190.234375 L 205.035156 190.234375 C 203.828125 189.234375 203.457031 188.164062 203.914062 187.023438 L 203.910156 187.023438 C 204.59375 185.765625 205.414062 184.804688 206.371094 184.136719 Z M 184.488281 187.433594 C 185.863281 188.867188 186.570312 190.085938 186.609375 191.082031 C 186.628906 191.878906 186.457031 192.40625 186.089844 192.65625 C 184.71875 191.785156 184.183594 190.042969 184.484375 187.433594 Z M 169.105469 191.90625 C 169.300781 191.90625 169.503906 191.914062 169.710938 191.933594 L 169.707031 191.933594 C 172.09375 192.539062 173.269531 193.304688 173.230469 194.230469 L 173.226562 194.230469 C 172.996094 195.050781 172.363281 195.460938 171.328125 195.460938 C 171.175781 195.460938 171.015625 195.453125 170.84375 195.433594 L 170.8125 195.433594 C 169.585938 195.320312 168.4375 194.238281 167.355469 192.1875 C 167.875 192 168.460938 191.90625 169.105469 191.90625 Z M 195.542969 172.304688 C 194.664062 172.304688 193.753906 172.355469 192.816406 172.460938 C 192.703125 172.476562 192.59375 172.496094 192.488281 172.523438 C 187.523438 173.808594 183.992188 176.28125 181.890625 179.941406 C 179.375 178.769531 176.757812 178.183594 174.050781 178.183594 C 172.707031 178.183594 171.339844 178.328125 169.949219 178.617188 C 169.820312 178.644531 169.691406 178.679688 169.570312 178.726562 C 164.703125 180.621094 162.296875 184.359375 162.351562 189.941406 C 161.984375 190.339844 161.644531 190.777344 161.332031 191.261719 C 161.292969 191.316406 161.257812 191.375 161.226562 191.4375 C 157.523438 198.324219 159.03125 204.042969 165.746094 208.597656 C 166.15625 208.875 166.617188 209.007812 167.078125 209.007812 C 167.835938 209.007812 168.582031 208.644531 169.039062 207.972656 C 169.773438 206.890625 169.492188 205.421875 168.410156 204.6875 C 164.964844 202.351562 163.617188 199.570312 164.359375 196.34375 L 164.363281 196.34375 C 166.039062 198.664062 168.042969 199.929688 170.382812 200.144531 C 170.808594 200.1875 171.214844 200.207031 171.605469 200.207031 C 175.054688 200.207031 177.148438 198.507812 177.890625 195.105469 C 177.90625 195.035156 177.917969 194.960938 177.925781 194.890625 C 178.386719 191.128906 175.96875 188.597656 170.671875 187.296875 C 170.566406 187.269531 170.457031 187.253906 170.351562 187.242188 C 169.882812 187.191406 169.425781 187.167969 168.984375 187.167969 C 168.457031 187.167969 167.949219 187.203125 167.457031 187.273438 C 168.011719 185.347656 169.230469 183.992188 171.109375 183.207031 L 171.105469 183.207031 C 172.074219 183.019531 173.027344 182.925781 173.96875 182.925781 C 176.121094 182.925781 178.203125 183.417969 180.21875 184.402344 L 180.214844 184.402344 C 178.652344 191.191406 180.242188 195.515625 184.980469 197.375 C 185.257812 197.484375 185.550781 197.539062 185.847656 197.539062 C 185.925781 197.539062 186.007812 197.535156 186.085938 197.527344 C 189.71875 197.160156 191.472656 194.957031 191.34375 190.914062 L 191.34375 190.898438 C 191.246094 188.394531 189.726562 185.78125 186.785156 183.058594 C 186.746094 183.023438 186.703125 182.988281 186.664062 182.953125 C 186.429688 182.765625 186.195312 182.582031 185.957031 182.40625 C 187.410156 179.859375 189.929688 178.105469 193.515625 177.144531 L 193.511719 177.144531 C 194.164062 177.078125 194.796875 177.042969 195.40625 177.042969 C 198.796875 177.042969 201.554688 178.097656 203.679688 180.210938 L 203.675781 180.210938 C 202.097656 181.300781 200.773438 182.851562 199.695312 184.859375 C 199.667969 184.914062 199.640625 184.964844 199.617188 185.019531 C 198.050781 188.570312 199 191.640625 202.460938 194.230469 C 202.605469 194.339844 202.765625 194.429688 202.929688 194.503906 C 203.847656 194.90625 204.714844 195.105469 205.535156 195.105469 C 207.9375 195.105469 209.914062 193.378906 211.46875 189.925781 C 211.515625 189.824219 211.550781 189.722656 211.582031 189.617188 C 212.164062 187.625 211.992188 185.4375 211.0625 183.058594 C 215.921875 183.304688 219.167969 185.738281 220.804688 190.359375 C 221.148438 191.332031 222.0625 191.9375 223.035156 191.9375 C 223.296875 191.9375 223.566406 191.894531 223.824219 191.800781 C 225.058594 191.367188 225.707031 190.015625 225.269531 188.785156 C 222.800781 181.796875 217.839844 178.304688 210.386719 178.304688 C 209.820312 178.304688 209.238281 178.324219 208.644531 178.363281 C 208.589844 178.367188 208.535156 178.375 208.480469 178.382812 C 208.453125 178.386719 208.425781 178.390625 208.394531 178.394531 C 205.257812 174.332031 200.972656 172.304688 195.542969 172.304688 Z M 195.542969 172.304688 " fill-opacity="1" fill-rule="nonzero"/><path fill="#000000" d="M 178.730469 132.617188 C 178.503906 132.617188 178.273438 132.648438 178.042969 132.71875 C 170.003906 135.140625 163.480469 138.1875 158.46875 141.855469 C 155.820312 143.664062 151.753906 148.546875 146.273438 156.507812 C 145.53125 157.582031 145.804688 159.054688 146.882812 159.796875 C 147.292969 160.078125 147.761719 160.210938 148.222656 160.210938 C 148.976562 160.210938 149.71875 159.855469 150.175781 159.1875 C 155.371094 151.648438 159.039062 147.164062 161.179688 145.734375 C 161.210938 145.714844 161.238281 145.695312 161.265625 145.675781 C 165.839844 142.324219 171.890625 139.515625 179.414062 137.246094 C 180.667969 136.867188 181.375 135.546875 180.996094 134.296875 C 180.6875 133.277344 179.746094 132.617188 178.730469 132.617188 Z M 178.730469 132.617188 " fill-opacity="1" fill-rule="nonzero"/><path fill="#000000" d="M 191.425781 128.074219 C 191.339844 128.074219 191.253906 128.078125 191.164062 128.085938 C 190.074219 128.207031 189.210938 128.335938 188.570312 128.472656 C 187.566406 128.6875 186.734375 128.914062 186.078125 129.15625 C 184.847656 129.605469 184.214844 130.960938 184.667969 132.1875 C 185.015625 133.148438 185.925781 133.742188 186.890625 133.742188 C 187.160156 133.742188 187.4375 133.695312 187.707031 133.597656 C 188.15625 133.433594 188.777344 133.265625 189.5625 133.097656 L 189.566406 133.097656 C 190.050781 132.996094 190.753906 132.890625 191.683594 132.789062 C 192.984375 132.644531 193.921875 131.476562 193.78125 130.179688 C 193.644531 128.96875 192.621094 128.074219 191.425781 128.074219 Z M 191.425781 128.074219 " fill-opacity="1" fill-rule="nonzero"/><path fill="#000000" d="M 129.371094 212.886719 C 128.734375 212.886719 128.097656 213.144531 127.628906 213.648438 C 127.417969 213.878906 127.042969 214.222656 126.496094 214.6875 C 123.796875 216.875 121.832031 218.445312 120.597656 219.398438 C 119.5625 220.199219 119.371094 221.683594 120.171875 222.71875 C 120.636719 223.320312 121.339844 223.636719 122.046875 223.636719 C 122.550781 223.636719 123.0625 223.476562 123.492188 223.144531 C 124.765625 222.160156 126.777344 220.554688 129.527344 218.324219 L 129.566406 218.289062 C 130.257812 217.703125 130.773438 217.222656 131.113281 216.855469 C 132 215.898438 131.9375 214.402344 130.976562 213.515625 C 130.523438 213.09375 129.945312 212.886719 129.371094 212.886719 Z M 129.371094 212.886719 " fill-opacity="1" fill-rule="nonzero"/><path fill="#000000" d="M 120.742188 191.199219 C 120.394531 191.199219 120.042969 191.277344 119.707031 191.4375 C 119.363281 191.605469 118.976562 191.773438 118.554688 191.945312 L 118.550781 191.945312 C 117.664062 192.253906 115.253906 193.207031 111.316406 194.796875 C 110.621094 195.070312 109.59375 195.457031 108.246094 195.964844 C 107.019531 196.421875 106.398438 197.785156 106.855469 199.007812 C 107.210938 199.957031 108.113281 200.542969 109.074219 200.542969 C 109.351562 200.542969 109.632812 200.496094 109.90625 200.394531 C 111.292969 199.875 112.347656 199.476562 113.066406 199.195312 L 113.074219 199.191406 L 113.097656 199.183594 C 117.070312 197.574219 119.425781 196.644531 120.164062 196.394531 C 120.199219 196.382812 120.238281 196.367188 120.277344 196.351562 C 120.820312 196.136719 121.320312 195.917969 121.777344 195.695312 C 122.953125 195.125 123.445312 193.710938 122.875 192.535156 C 122.464844 191.691406 121.621094 191.199219 120.742188 191.199219 Z M 120.742188 191.199219 " fill-opacity="1" fill-rule="nonzero"/><path fill="#000000" d="M 119.464844 170.472656 C 119.113281 170.472656 118.761719 170.546875 118.425781 170.710938 C 117.507812 171.160156 116.382812 171.5625 115.058594 171.925781 L 115.054688 171.925781 C 111.722656 172.738281 109.171875 173.332031 107.398438 173.710938 C 106.117188 173.984375 105.304688 175.242188 105.578125 176.519531 C 105.816406 177.628906 106.800781 178.390625 107.894531 178.390625 C 108.058594 178.390625 108.226562 178.371094 108.394531 178.335938 C 110.214844 177.945312 112.824219 177.339844 116.21875 176.515625 L 116.226562 176.511719 C 116.25 176.507812 116.269531 176.5 116.292969 176.496094 C 117.910156 176.050781 119.316406 175.542969 120.503906 174.960938 C 121.679688 174.390625 122.167969 172.972656 121.59375 171.800781 C 121.183594 170.960938 120.339844 170.472656 119.464844 170.472656 Z M 119.464844 170.472656 " fill-opacity="1" fill-rule="nonzero"/><g clip-path="url(#42fcacbbe3)"><path fill="#000000" d="M 104.667969 149.859375 C 103.628906 149.859375 102.671875 150.550781 102.382812 151.601562 C 102.039062 152.863281 102.78125 154.164062 104.046875 154.507812 L 112.664062 156.859375 C 112.71875 156.875 112.777344 156.886719 112.835938 156.898438 C 114.234375 157.171875 115.792969 157.320312 117.515625 157.34375 C 117.527344 157.34375 117.539062 157.34375 117.546875 157.34375 C 118.84375 157.34375 119.898438 156.304688 119.917969 155.007812 C 119.933594 153.703125 118.886719 152.628906 117.578125 152.613281 C 116.179688 152.59375 114.929688 152.480469 113.832031 152.273438 L 105.292969 149.945312 C 105.085938 149.886719 104.875 149.859375 104.667969 149.859375 Z M 104.667969 149.859375 " fill-opacity="1" fill-rule="nonzero"/></g><path fill="#000000" d="M 115.53125 123.859375 C 114.878906 123.859375 114.226562 124.128906 113.757812 124.65625 C 112.890625 125.632812 112.980469 127.128906 113.960938 127.996094 C 116.957031 130.648438 118.933594 132.332031 119.890625 133.035156 C 120.460938 133.476562 121.007812 133.871094 121.535156 134.210938 C 121.5625 134.230469 121.59375 134.246094 121.621094 134.265625 C 122.804688 134.960938 123.652344 135.492188 124.160156 135.855469 C 124.578125 136.152344 125.058594 136.292969 125.535156 136.292969 C 126.273438 136.292969 127.003906 135.949219 127.464844 135.300781 C 128.226562 134.238281 127.976562 132.761719 126.910156 132.003906 C 126.300781 131.566406 125.363281 130.976562 124.097656 130.230469 L 124.09375 130.230469 C 123.675781 129.957031 123.226562 129.636719 122.753906 129.269531 C 122.738281 129.257812 122.726562 129.246094 122.710938 129.234375 C 121.867188 128.613281 120 127.019531 117.101562 124.457031 C 116.652344 124.054688 116.089844 123.859375 115.53125 123.859375 Z M 115.53125 123.859375 " fill-opacity="1" fill-rule="nonzero"/><path fill="#000000" d="M 132.191406 108.648438 C 131.769531 108.648438 131.34375 108.757812 130.960938 108.992188 C 129.84375 109.671875 129.488281 111.128906 130.167969 112.242188 C 131.011719 113.628906 132.375 115.289062 134.257812 117.222656 C 136.59375 119.667969 138.324219 121.152344 139.449219 121.675781 C 139.527344 121.710938 139.601562 121.742188 139.675781 121.773438 C 139.964844 121.886719 140.261719 121.941406 140.554688 121.941406 C 141.496094 121.941406 142.386719 121.378906 142.753906 120.453125 C 143.238281 119.246094 142.65625 117.875 141.449219 117.386719 C 140.863281 117.113281 139.605469 115.964844 137.671875 113.941406 L 137.65625 113.925781 C 136.023438 112.246094 134.875 110.867188 134.214844 109.785156 C 133.769531 109.050781 132.988281 108.648438 132.191406 108.648438 Z M 132.191406 108.648438 " fill-opacity="1" fill-rule="nonzero"/><path fill="#000000" d="M 167.019531 88.59375 C 166.78125 88.59375 166.535156 88.632812 166.292969 88.710938 C 165.050781 89.109375 164.363281 90.441406 164.761719 91.683594 C 165.066406 92.621094 165.683594 94.261719 166.613281 96.601562 C 166.816406 97.15625 167.011719 97.714844 167.203125 98.277344 L 167.207031 98.300781 C 167.714844 99.765625 168.402344 102.070312 169.269531 105.214844 L 169.273438 105.242188 C 169.574219 106.277344 170.519531 106.953125 171.550781 106.953125 C 171.757812 106.953125 171.96875 106.925781 172.179688 106.867188 C 173.441406 106.519531 174.183594 105.21875 173.828125 103.933594 L 173.828125 103.929688 C 172.945312 100.722656 172.234375 98.335938 171.695312 96.78125 C 171.484375 96.152344 171.265625 95.527344 171.039062 94.910156 C 171.035156 94.898438 171.027344 94.882812 171.027344 94.878906 L 171.015625 94.851562 C 170.125 92.613281 169.542969 91.074219 169.273438 90.238281 C 168.953125 89.234375 168.023438 88.59375 167.019531 88.59375 Z M 167.019531 88.59375 " fill-opacity="1" fill-rule="nonzero"/><g clip-path="url(#3472d105fb)"><path fill="#000000" d="M 207.707031 87.285156 C 206.78125 87.285156 205.902344 87.832031 205.519531 88.734375 C 202.871094 95.03125 201.292969 98.859375 200.785156 100.21875 C 200.46875 101.023438 200.191406 101.832031 199.953125 102.652344 C 199.589844 103.910156 200.3125 105.21875 201.570312 105.582031 C 201.789062 105.648438 202.011719 105.675781 202.230469 105.675781 C 203.257812 105.675781 204.207031 105.003906 204.503906 103.96875 C 204.707031 103.277344 204.941406 102.59375 205.210938 101.914062 L 205.226562 101.871094 C 205.710938 100.574219 207.265625 96.804688 209.890625 90.566406 C 210.394531 89.363281 209.828125 87.976562 208.621094 87.46875 C 208.324219 87.34375 208.011719 87.285156 207.707031 87.285156 Z M 207.707031 87.285156 " fill-opacity="1" fill-rule="nonzero"/></g><path fill="#000000" d="M 235.300781 101.105469 C 234.589844 101.105469 233.886719 101.425781 233.421875 102.03125 C 231.203125 104.914062 228.660156 108.644531 225.789062 113.21875 C 225.09375 114.324219 225.425781 115.785156 226.535156 116.476562 C 226.925781 116.722656 227.363281 116.839844 227.792969 116.839844 C 228.582031 116.839844 229.351562 116.445312 229.800781 115.730469 C 232.59375 111.285156 235.054688 107.675781 237.179688 104.910156 C 237.976562 103.875 237.78125 102.390625 236.742188 101.59375 C 236.3125 101.265625 235.804688 101.105469 235.300781 101.105469 Z M 235.300781 101.105469 " fill-opacity="1" fill-rule="nonzero"/><path fill="#000000" d="M 251.355469 117.707031 C 250.734375 117.707031 250.109375 117.953125 249.644531 118.4375 C 248.433594 119.703125 247.359375 120.796875 246.421875 121.726562 L 246.417969 121.726562 C 244.136719 123.8125 242.359375 125.535156 241.085938 126.886719 C 240.191406 127.839844 240.238281 129.335938 241.191406 130.230469 C 241.648438 130.660156 242.230469 130.871094 242.8125 130.871094 C 243.445312 130.871094 244.074219 130.621094 244.539062 130.125 C 245.746094 128.847656 247.460938 127.1875 249.6875 125.152344 C 249.710938 125.128906 249.734375 125.109375 249.761719 125.078125 C 250.730469 124.121094 251.832031 123 253.070312 121.707031 C 253.972656 120.765625 253.941406 119.265625 252.996094 118.363281 C 252.535156 117.925781 251.945312 117.707031 251.355469 117.707031 Z M 251.355469 117.707031 " fill-opacity="1" fill-rule="nonzero"/><path fill="#000000" d="M 263.171875 139.964844 C 262.917969 139.964844 262.660156 140.003906 262.410156 140.089844 C 259.753906 140.992188 256.695312 141.777344 253.226562 142.449219 C 251.941406 142.699219 251.105469 143.941406 251.351562 145.222656 C 251.574219 146.351562 252.5625 147.136719 253.675781 147.136719 C 253.824219 147.136719 253.976562 147.125 254.128906 147.09375 C 257.808594 146.382812 261.078125 145.539062 263.9375 144.566406 C 265.175781 144.148438 265.835938 142.804688 265.414062 141.566406 C 265.078125 140.582031 264.160156 139.964844 263.171875 139.964844 Z M 263.171875 139.964844 " fill-opacity="1" fill-rule="nonzero"/><path fill="#000000" d="M 270.625 156.933594 C 270.601562 156.933594 270.578125 156.933594 270.554688 156.9375 C 266.414062 157.058594 263.839844 157.160156 262.832031 157.242188 L 262.828125 157.242188 C 261.335938 157.339844 260.382812 157.410156 259.957031 157.453125 L 259.953125 157.453125 C 258.921875 157.558594 258.164062 157.664062 257.679688 157.761719 C 256.398438 158.023438 255.570312 159.273438 255.832031 160.550781 C 256.058594 161.671875 257.046875 162.445312 258.148438 162.445312 C 258.308594 162.445312 258.464844 162.429688 258.625 162.398438 C 258.960938 162.328125 259.5625 162.25 260.429688 162.160156 C 260.804688 162.125 261.722656 162.054688 263.183594 161.957031 L 263.214844 161.957031 C 264.140625 161.882812 266.632812 161.785156 270.695312 161.664062 C 272.003906 161.625 273.03125 160.535156 272.992188 159.230469 C 272.957031 157.949219 271.902344 156.933594 270.625 156.933594 Z M 270.625 156.933594 " fill-opacity="1" fill-rule="nonzero"/><path fill="#000000" d="M 257.515625 180.039062 C 256.789062 180.039062 256.070312 180.371094 255.605469 181.003906 C 254.828125 182.054688 255.054688 183.535156 256.109375 184.308594 C 256.984375 184.953125 259.101562 185.910156 262.460938 187.183594 C 264.945312 188.167969 267.332031 188.988281 269.621094 189.644531 C 269.839844 189.707031 270.058594 189.738281 270.277344 189.738281 C 271.304688 189.738281 272.253906 189.0625 272.550781 188.023438 C 272.914062 186.769531 272.1875 185.457031 270.929688 185.097656 C 268.78125 184.484375 266.53125 183.707031 264.179688 182.777344 L 264.144531 182.761719 C 261.1875 181.640625 259.445312 180.886719 258.917969 180.5 C 258.496094 180.1875 258.003906 180.039062 257.515625 180.039062 Z M 257.515625 180.039062 " fill-opacity="1" fill-rule="nonzero"/></svg>