<svg xmlns="http://www.w3.org/2000/svg" xmlns:xlink="http://www.w3.org/1999/xlink" width="500" zoomAndPan="magnify" viewBox="0 0 375 374.999991" height="500" preserveAspectRatio="xMidYMid meet" version="1.0"><defs><clipPath id="78d79540af"><path d="M 72.617188 97.683594 L 302.117188 97.683594 L 302.117188 277.683594 L 72.617188 277.683594 Z M 72.617188 97.683594 " clip-rule="nonzero"/></clipPath></defs><g clip-path="url(#78d79540af)"><path fill="#000000" d="M 128.601562 188.1875 L 162.871094 188.1875 L 162.871094 277.683594 L 72.65625 277.683594 L 72.65625 202.242188 C 72.65625 165.335938 81.628906 138.890625 99.519531 122.863281 C 117.410156 106.835938 142.914062 98.441406 175.976562 97.683594 L 176.429688 133.984375 C 137.015625 138.132812 125.628906 155.425781 128.601562 188.1875 Z M 254.699219 188.1875 L 288.972656 188.1875 L 288.972656 277.683594 L 198.757812 277.683594 L 198.757812 202.242188 C 198.757812 165.335938 207.726562 138.890625 225.621094 122.863281 C 243.511719 106.835938 269.015625 98.441406 302.078125 97.683594 L 302.078125 134.339844 C 262.664062 138.433594 251.726562 155.425781 254.699219 188.1875 Z M 254.699219 188.1875 " fill-opacity="1" fill-rule="nonzero"/></g></svg>