<svg xmlns="http://www.w3.org/2000/svg" xmlns:xlink="http://www.w3.org/1999/xlink" width="100" zoomAndPan="magnify" viewBox="0 0 75 37.5" height="50" preserveAspectRatio="xMidYMid meet" version="1.0"><defs><clipPath id="7c52e1120c"><path d="M 26 8.003906 L 49 8.003906 L 49 28.726562 L 26 28.726562 Z M 26 8.003906 " clip-rule="nonzero"/></clipPath><clipPath id="0761d3c396"><path d="M 12 13 L 28 13 L 28 28.726562 L 12 28.726562 Z M 12 13 " clip-rule="nonzero"/></clipPath><clipPath id="1058828138"><path d="M 0.492188 16 L 12 16 L 12 28 L 0.492188 28 Z M 0.492188 16 " clip-rule="nonzero"/></clipPath><clipPath id="3a0607b354"><path d="M 47 13 L 63 13 L 63 28.726562 L 47 28.726562 Z M 47 13 " clip-rule="nonzero"/></clipPath><clipPath id="a7c1c1636f"><path d="M 63 16 L 74.503906 16 L 74.503906 28 L 63 28 Z M 63 16 " clip-rule="nonzero"/></clipPath></defs><g clip-path="url(#7c52e1120c)"><path fill="#ffcc00" d="M 26.039062 15.886719 Z M 28.875 18.644531 Z M 30.222656 19.980469 Z M 31.25 20.917969 Z M 42.722656 21.480469 Z M 42.664062 21.125 C 44.089844 19.847656 45.386719 18.570312 46.792969 17.277344 C 46.984375 17.089844 48.179688 15.941406 48.179688 15.941406 L 42.96875 15.117188 C 41.675781 14.929688 40.628906 14.777344 40.496094 14.722656 L 40.496094 14.703125 L 40.476562 14.722656 L 37.054688 8.003906 L 33.648438 14.703125 L 33.648438 14.722656 L 33.628906 14.761719 L 26.019531 15.90625 L 28.875 18.644531 C 29.121094 18.871094 29.347656 19.117188 29.597656 19.339844 C 29.804688 19.546875 30.015625 19.773438 30.222656 19.980469 L 31.25 20.917969 C 31.289062 20.953125 31.308594 20.972656 31.347656 20.992188 C 31.460938 21.085938 31.515625 21.125 31.5 21.347656 L 30.300781 28.707031 L 30.566406 28.578125 L 37.015625 25.234375 C 37.207031 25.199219 39.222656 26.285156 41.027344 27.242188 C 42.398438 27.976562 43.636719 28.632812 43.902344 28.726562 L 43.921875 28.726562 L 43.5 25.949219 C 43.425781 25.554688 43.347656 25.214844 43.3125 24.992188 C 43.253906 24.617188 43.179688 24.203125 43.101562 23.789062 C 42.929688 22.980469 42.777344 22.15625 42.722656 21.480469 Z M 42.664062 21.125 " fill-opacity="1" fill-rule="evenodd"/></g><g clip-path="url(#0761d3c396)"><path fill="#ffcc00" d="M 12.628906 19.304688 Z M 14.550781 21.179688 Z M 15.480469 22.082031 Z M 16.164062 22.71875 Z M 23.964844 23.09375 Z M 23.925781 22.851562 C 24.898438 21.988281 25.773438 21.125 26.722656 20.242188 C 26.855469 20.109375 27.675781 19.320312 27.675781 19.320312 L 24.117188 18.777344 C 23.261719 18.644531 22.539062 18.535156 22.445312 18.496094 L 22.445312 18.515625 L 20.105469 13.933594 L 17.800781 18.496094 L 17.800781 18.515625 L 17.78125 18.535156 L 12.609375 19.320312 L 14.550781 21.179688 C 14.71875 21.332031 14.871094 21.480469 15.042969 21.648438 C 15.175781 21.800781 15.328125 21.929688 15.480469 22.082031 L 16.164062 22.71875 C 16.183594 22.738281 16.203125 22.757812 16.222656 22.777344 C 16.300781 22.832031 16.335938 22.871094 16.335938 23.019531 L 15.519531 28.011719 L 15.710938 27.917969 L 20.085938 25.648438 C 20.21875 25.628906 21.585938 26.359375 22.804688 27.019531 C 23.738281 27.507812 24.574219 27.957031 24.765625 28.011719 L 24.496094 26.136719 C 24.441406 25.875 24.382812 25.628906 24.363281 25.480469 C 24.328125 25.234375 24.269531 24.953125 24.210938 24.652344 C 24.097656 24.128906 24.003906 23.5625 23.964844 23.09375 Z M 23.925781 22.851562 " fill-opacity="1" fill-rule="evenodd"/></g><g clip-path="url(#1058828138)"><path fill="#ffcc00" d="M 0.566406 20.898438 Z M 1.992188 22.289062 Z M 2.679688 22.945312 Z M 3.191406 23.433594 Z M 8.9375 23.695312 Z M 8.898438 23.527344 C 9.621094 22.886719 10.269531 22.25 10.972656 21.59375 C 11.066406 21.5 11.65625 20.9375 11.65625 20.9375 L 9.050781 20.523438 C 8.40625 20.429688 7.890625 20.355469 7.816406 20.316406 L 6.082031 16.957031 L 4.390625 20.316406 L 4.371094 20.335938 L 0.566406 20.917969 L 1.992188 22.289062 C 2.128906 22.398438 2.242188 22.511719 2.355469 22.644531 C 2.449219 22.738281 2.566406 22.851562 2.679688 22.945312 L 3.191406 23.433594 C 3.210938 23.433594 3.210938 23.453125 3.230469 23.46875 C 3.289062 23.507812 3.324219 23.527344 3.304688 23.640625 L 2.714844 27.335938 L 2.851562 27.261719 L 6.066406 25.589844 C 6.160156 25.574219 7.1875 26.117188 8.082031 26.585938 C 8.765625 26.960938 9.394531 27.28125 9.527344 27.335938 L 9.316406 25.949219 C 9.28125 25.742188 9.242188 25.574219 9.222656 25.460938 C 9.203125 25.273438 9.164062 25.066406 9.109375 24.859375 C 9.03125 24.464844 8.957031 24.050781 8.9375 23.714844 L 8.9375 23.695312 Z M 8.898438 23.527344 " fill-opacity="1" fill-rule="evenodd"/></g><g clip-path="url(#3a0607b354)"><path fill="#ffcc00" d="M 62.371094 19.304688 Z M 60.449219 21.179688 Z M 59.539062 22.082031 Z M 58.835938 22.71875 Z M 51.035156 23.09375 Z M 51.074219 22.851562 C 50.101562 21.988281 49.226562 21.125 48.277344 20.242188 C 48.144531 20.109375 47.34375 19.320312 47.34375 19.320312 L 50.882812 18.777344 C 51.757812 18.644531 52.460938 18.535156 52.554688 18.496094 L 52.574219 18.515625 L 54.894531 13.933594 L 57.199219 18.496094 L 57.21875 18.515625 L 57.21875 18.535156 L 62.390625 19.320312 L 60.449219 21.179688 C 60.28125 21.332031 60.128906 21.480469 59.957031 21.648438 C 59.824219 21.800781 59.691406 21.929688 59.539062 22.082031 L 58.835938 22.71875 C 58.816406 22.738281 58.796875 22.757812 58.777344 22.777344 C 58.699219 22.832031 58.664062 22.871094 58.683594 23.019531 L 59.480469 28.011719 L 59.289062 27.917969 L 54.914062 25.648438 C 54.800781 25.628906 53.414062 26.359375 52.195312 27.019531 C 51.261719 27.507812 50.425781 27.957031 50.253906 28.011719 L 50.234375 28.011719 L 50.519531 26.136719 C 50.558594 25.875 50.617188 25.628906 50.636719 25.480469 C 50.671875 25.234375 50.730469 24.953125 50.789062 24.652344 C 50.902344 24.128906 51.015625 23.5625 51.035156 23.09375 Z M 51.074219 22.851562 " fill-opacity="1" fill-rule="evenodd"/></g><g clip-path="url(#a7c1c1636f)"><path fill="#ffcc00" d="M 74.433594 20.898438 Z M 73.007812 22.289062 Z M 72.320312 22.945312 Z M 71.828125 23.433594 Z M 66.0625 23.695312 Z M 66.101562 23.527344 C 65.378906 22.886719 64.730469 22.25 64.027344 21.59375 C 63.933594 21.5 63.34375 20.9375 63.34375 20.9375 L 65.949219 20.523438 C 66.59375 20.429688 67.109375 20.355469 67.183594 20.316406 L 67.203125 20.316406 L 68.917969 16.957031 L 70.609375 20.316406 L 70.628906 20.335938 L 74.433594 20.917969 L 73.007812 22.289062 C 72.871094 22.398438 72.757812 22.511719 72.644531 22.644531 C 72.550781 22.738281 72.433594 22.851562 72.320312 22.945312 L 71.828125 23.433594 C 71.808594 23.433594 71.789062 23.453125 71.769531 23.46875 C 71.710938 23.507812 71.695312 23.527344 71.695312 23.640625 L 72.300781 27.335938 L 72.148438 27.261719 L 68.933594 25.589844 C 68.839844 25.574219 67.832031 26.117188 66.917969 26.585938 C 66.234375 26.960938 65.625 27.28125 65.492188 27.335938 L 65.472656 27.335938 L 65.683594 25.949219 C 65.71875 25.742188 65.757812 25.574219 65.777344 25.460938 C 65.796875 25.273438 65.855469 25.066406 65.890625 24.859375 C 65.96875 24.464844 66.042969 24.050781 66.0625 23.714844 L 66.0625 23.695312 Z M 66.101562 23.527344 " fill-opacity="1" fill-rule="evenodd"/></g></svg>