<svg xmlns="http://www.w3.org/2000/svg" xmlns:xlink="http://www.w3.org/1999/xlink" width="500" zoomAndPan="magnify" viewBox="0 0 375 374.999991" height="500" preserveAspectRatio="xMidYMid meet" version="1.0"><path fill="#ffbe0d" d="M 86.414062 213.867188 C 85.429688 214.820312 84.980469 216.195312 85.214844 217.546875 L 87.421875 230.382812 C 88.007812 233.777344 84.429688 236.363281 81.375 234.757812 L 69.808594 228.695312 C 68.59375 228.0625 67.140625 228.0625 65.925781 228.695312 L 54.359375 234.757812 C 51.609375 236.203125 48.433594 234.253906 48.261719 231.375 C 48.234375 231.054688 48.257812 230.726562 48.3125 230.382812 L 50.523438 217.546875 C 50.75 216.195312 50.300781 214.820312 49.324219 213.867188 L 39.964844 204.773438 C 37.484375 202.367188 38.855469 198.183594 42.277344 197.6875 L 55.207031 195.816406 C 56.5625 195.613281 57.734375 194.769531 58.339844 193.542969 L 64.128906 181.859375 C 65.65625 178.769531 70.070312 178.769531 71.605469 181.859375 L 77.386719 193.542969 C 77.992188 194.765625 79.164062 195.613281 80.519531 195.816406 L 93.457031 197.6875 C 93.785156 197.734375 94.09375 197.816406 94.378906 197.925781 C 97.105469 198.964844 98.007812 202.59375 95.765625 204.773438 Z M 86.414062 213.867188 " fill-opacity="1" fill-rule="nonzero"/><path fill="#ffbe0d" d="M 148.539062 213.867188 C 147.554688 214.820312 147.101562 216.195312 147.335938 217.546875 L 149.546875 230.382812 C 150.132812 233.777344 146.554688 236.363281 143.5 234.757812 L 131.933594 228.695312 C 130.714844 228.0625 129.261719 228.0625 128.046875 228.695312 L 116.480469 234.757812 C 113.730469 236.203125 110.558594 234.253906 110.386719 231.375 C 110.355469 231.054688 110.378906 230.726562 110.433594 230.382812 L 112.644531 217.546875 C 112.875 216.195312 112.421875 214.820312 111.445312 213.867188 L 102.085938 204.773438 C 99.609375 202.367188 100.980469 198.183594 104.398438 197.6875 L 117.328125 195.816406 C 118.6875 195.613281 119.855469 194.769531 120.460938 193.542969 L 126.253906 181.859375 C 127.78125 178.769531 132.191406 178.769531 133.726562 181.859375 L 139.511719 193.542969 C 140.117188 194.765625 141.285156 195.613281 142.644531 195.816406 L 155.582031 197.6875 C 155.90625 197.734375 156.214844 197.816406 156.503906 197.925781 C 159.230469 198.964844 160.128906 202.59375 157.890625 204.773438 Z M 148.539062 213.867188 " fill-opacity="1" fill-rule="nonzero"/><path fill="#ffbe0d" d="M 210.65625 213.867188 C 209.671875 214.820312 209.222656 216.195312 209.457031 217.546875 L 211.664062 230.382812 C 212.25 233.777344 208.671875 236.363281 205.617188 234.757812 L 194.050781 228.695312 C 192.835938 228.0625 191.382812 228.0625 190.167969 228.695312 L 178.601562 234.757812 C 175.851562 236.203125 172.675781 234.253906 172.507812 231.375 C 172.476562 231.054688 172.5 230.726562 172.554688 230.382812 L 174.765625 217.546875 C 174.992188 216.195312 174.542969 214.820312 173.566406 213.867188 L 164.207031 204.773438 C 161.726562 202.367188 163.097656 198.183594 166.519531 197.6875 L 179.449219 195.816406 C 180.804688 195.613281 181.976562 194.769531 182.582031 193.542969 L 188.371094 181.859375 C 189.898438 178.769531 194.3125 178.769531 195.847656 181.859375 L 201.628906 193.542969 C 202.234375 194.765625 203.40625 195.613281 204.761719 195.816406 L 217.699219 197.6875 C 218.027344 197.734375 218.335938 197.816406 218.621094 197.925781 C 221.351562 198.964844 222.25 202.59375 220.007812 204.773438 Z M 210.65625 213.867188 " fill-opacity="1" fill-rule="nonzero"/><path fill="#ffbe0d" d="M 272.78125 213.867188 C 271.796875 214.820312 271.347656 216.195312 271.582031 217.546875 L 273.789062 230.382812 C 274.375 233.777344 270.796875 236.363281 267.742188 234.757812 L 256.175781 228.695312 C 254.960938 228.0625 253.507812 228.0625 252.292969 228.695312 L 240.726562 234.757812 C 237.972656 236.203125 234.800781 234.253906 234.628906 231.375 C 234.601562 231.054688 234.621094 230.726562 234.679688 230.382812 L 236.890625 217.546875 C 237.117188 216.195312 236.667969 214.820312 235.6875 213.867188 L 226.332031 204.773438 C 223.851562 202.367188 225.222656 198.183594 228.640625 197.6875 L 241.574219 195.816406 C 242.929688 195.613281 244.097656 194.769531 244.707031 193.542969 L 250.496094 181.859375 C 252.023438 178.769531 256.433594 178.769531 257.96875 181.859375 L 263.753906 193.542969 C 264.359375 194.765625 265.53125 195.613281 266.886719 195.816406 L 279.824219 197.6875 C 280.152344 197.734375 280.460938 197.816406 280.746094 197.925781 C 283.472656 198.964844 284.371094 202.59375 282.132812 204.773438 Z M 272.78125 213.867188 " fill-opacity="1" fill-rule="nonzero"/><path fill="#ffbe0d" d="M 334.902344 213.867188 C 333.914062 214.820312 333.464844 216.195312 333.699219 217.546875 L 335.90625 230.382812 C 336.496094 233.777344 332.914062 236.363281 329.859375 234.757812 L 318.292969 228.695312 C 317.078125 228.0625 315.625 228.0625 314.410156 228.695312 L 302.84375 234.757812 C 300.09375 236.203125 296.921875 234.253906 296.75 231.375 C 296.71875 231.054688 296.742188 230.726562 296.796875 230.382812 L 299.007812 217.546875 C 299.234375 216.195312 298.785156 214.820312 297.808594 213.867188 L 288.449219 204.773438 C 285.972656 202.367188 287.34375 198.183594 290.761719 197.6875 L 303.691406 195.816406 C 305.046875 195.613281 306.21875 194.769531 306.824219 193.542969 L 312.617188 181.859375 C 314.144531 178.769531 318.554688 178.769531 320.089844 181.859375 L 325.871094 193.542969 C 326.480469 194.765625 327.648438 195.613281 329.003906 195.816406 L 341.945312 197.6875 C 342.269531 197.734375 342.578125 197.816406 342.863281 197.925781 C 345.59375 198.964844 346.492188 202.59375 344.25 204.773438 Z M 334.902344 213.867188 " fill-opacity="1" fill-rule="nonzero"/><path fill="#ffce00" d="M 94.382812 197.925781 C 84.144531 214.410156 67.683594 226.648438 48.261719 231.375 C 48.234375 231.054688 48.257812 230.726562 48.3125 230.382812 L 50.523438 217.546875 C 50.75 216.195312 50.300781 214.820312 49.324219 213.867188 L 39.964844 204.773438 C 37.484375 202.367188 38.855469 198.183594 42.277344 197.6875 L 55.207031 195.816406 C 56.5625 195.613281 57.734375 194.769531 58.339844 193.542969 L 64.128906 181.859375 C 65.65625 178.769531 70.070312 178.769531 71.605469 181.859375 L 77.386719 193.542969 C 77.992188 194.765625 79.164062 195.613281 80.519531 195.816406 L 93.457031 197.6875 C 93.792969 197.734375 94.097656 197.8125 94.382812 197.925781 Z M 94.382812 197.925781 " fill-opacity="1" fill-rule="nonzero"/><path fill="#ffce00" d="M 156.507812 197.925781 C 146.265625 214.410156 129.804688 226.648438 110.386719 231.375 C 110.355469 231.054688 110.378906 230.726562 110.433594 230.382812 L 112.644531 217.546875 C 112.875 216.195312 112.421875 214.820312 111.445312 213.867188 L 102.085938 204.773438 C 99.609375 202.367188 100.980469 198.183594 104.398438 197.6875 L 117.328125 195.816406 C 118.6875 195.613281 119.855469 194.769531 120.460938 193.542969 L 126.253906 181.859375 C 127.78125 178.769531 132.191406 178.769531 133.726562 181.859375 L 139.511719 193.542969 C 140.117188 194.765625 141.285156 195.613281 142.644531 195.816406 L 155.582031 197.6875 C 155.910156 197.734375 156.21875 197.8125 156.507812 197.925781 Z M 156.507812 197.925781 " fill-opacity="1" fill-rule="nonzero"/><path fill="#ffce00" d="M 218.625 197.925781 C 208.386719 214.410156 191.925781 226.648438 172.507812 231.375 C 172.476562 231.054688 172.5 230.726562 172.554688 230.382812 L 174.765625 217.546875 C 174.992188 216.195312 174.542969 214.820312 173.566406 213.867188 L 164.207031 204.773438 C 161.726562 202.367188 163.097656 198.183594 166.519531 197.6875 L 179.449219 195.816406 C 180.804688 195.613281 181.976562 194.769531 182.582031 193.542969 L 188.371094 181.859375 C 189.898438 178.769531 194.3125 178.769531 195.847656 181.859375 L 201.628906 193.542969 C 202.234375 194.765625 203.40625 195.613281 204.761719 195.816406 L 217.699219 197.6875 C 218.03125 197.734375 218.339844 197.8125 218.625 197.925781 Z M 218.625 197.925781 " fill-opacity="1" fill-rule="nonzero"/><path fill="#ffce00" d="M 280.746094 197.925781 C 270.507812 214.410156 254.046875 226.648438 234.625 231.375 C 234.597656 231.054688 234.617188 230.726562 234.675781 230.382812 L 236.886719 217.546875 C 237.113281 216.195312 236.664062 214.820312 235.683594 213.867188 L 226.328125 204.773438 C 223.847656 202.367188 225.21875 198.183594 228.636719 197.6875 L 241.570312 195.816406 C 242.925781 195.613281 244.097656 194.769531 244.703125 193.542969 L 250.492188 181.859375 C 252.019531 178.769531 256.429688 178.769531 257.964844 181.859375 L 263.75 193.542969 C 264.355469 194.765625 265.527344 195.613281 266.882812 195.816406 L 279.820312 197.6875 C 280.15625 197.734375 280.460938 197.8125 280.746094 197.925781 Z M 280.746094 197.925781 " fill-opacity="1" fill-rule="nonzero"/><path fill="#ffce00" d="M 342.867188 197.925781 C 332.628906 214.410156 316.167969 226.648438 296.75 231.375 C 296.71875 231.054688 296.742188 230.726562 296.796875 230.382812 L 299.007812 217.546875 C 299.234375 216.195312 298.785156 214.820312 297.808594 213.867188 L 288.449219 204.773438 C 285.972656 202.367188 287.34375 198.183594 290.761719 197.6875 L 303.691406 195.816406 C 305.046875 195.613281 306.21875 194.769531 306.824219 193.542969 L 312.617188 181.859375 C 314.144531 178.769531 318.554688 178.769531 320.089844 181.859375 L 325.871094 193.542969 C 326.480469 194.765625 327.648438 195.613281 329.007812 195.816406 L 341.945312 197.6875 C 342.273438 197.734375 342.582031 197.8125 342.867188 197.925781 Z M 342.867188 197.925781 " fill-opacity="1" fill-rule="nonzero"/></svg>